<?xml version="1.0" encoding="utf-8"?>
<!-- Generator: Adobe Illustrator 21.1.0, SVG Export Plug-In . SVG Version: 6.00 Build 0)  -->
<svg version="1.1" id="Layer_1" xmlns="http://www.w3.org/2000/svg" xmlns:xlink="http://www.w3.org/1999/xlink" x="0px" y="0px"
	 viewBox="0 0 530.6 169.7" style="enable-background:new 0 0 530.6 169.7;" xml:space="preserve">
<style type="text/css">
	.st0{fill:#005CB9;}
	.st1{fill:#999999;}
	.st2{fill:#002533;}
</style>
<path class="st0" d="M150.1,105.1c2-6.7,3-13.7,3-21c0-15.9-5.1-30.7-13.6-42.8c2.1-6.3,2.3-12.2-1.2-16.3
	c-3.6-4.3-10.1-5.4-19.2-3.3c-8.1-5.3-17.4-9-27.3-10.8C88.1,3.9,83.7,0.3,78.6,0c-0.2,0-0.4,0-0.5,0c-5.9,0-10.8,4.7-14.6,11.1
	c-17.6,3.6-33,13.4-43.8,27c-8.3,0-15.6,1.9-18.5,7.7c-2.6,5.1-1,11.7,4.9,19.5c-1.6,6.1-2.5,12.4-2.5,18.9c0,10,2,19.6,5.6,28.4
	c-4.7,9.9-5.1,17.4-1.1,22.1c2,2.4,5.4,4.3,11.2,4.3c2.1,0,4.6-0.3,7.5-0.9c8,7.6,17.7,13.5,28.5,17c3.4,8,8.2,14.2,14.9,14.6
	c0.2,0,0.4,0,0.5,0c5.3,0,10.2-3.8,14.7-11.3c21-2,39.5-12.7,51.8-28.5c8.2-0.4,13.6-3,15.9-7.6C155.9,117.1,154,111.1,150.1,105.1
	 M146.3,84.2c0,4.9-0.5,9.7-1.5,14.3c-6.5-7.2-14.9-13.9-21.1-18.4c0.5-1.4,0.8-3,0.8-4.6c0-2.4-0.7-4.7-1.8-6.7
	c4.4-5.5,9.8-12.8,13.5-20.1C142.7,59,146.3,71.2,146.3,84.2 M107,80.2l-0.4-0.4c-1.1-1.2-1.7-2.7-1.7-4.4c0-3.6,2.9-6.4,6.5-6.4
	c3.6,0,6.5,2.9,6.5,6.4c0,3.6-2.9,6.4-6.5,6.4C109.7,81.9,108.2,81.2,107,80.2 M51.6,129.6c-3.6,0-6.5-2.9-6.5-6.4
	c0-3.6,2.9-6.4,6.5-6.4c3.6,0,6.5,2.9,6.5,6.4C58,126.7,55.2,129.6,51.6,129.6 M28.8,130.6c-11.4-12.1-18.5-28.4-18.5-46.4
	c0-6.7,1-13.1,2.8-19.2c0,0,0.2-0.9,0.4-1.2c2.2-6.8,5.4-13.1,9.4-18.8c4.8,0.3,10.8,1.2,17.9,3c0.4,5.1,3.9,9.5,8.5,11.2
	c-1.1,7.8-1.9,16-2.3,24.3c-0.5,9.4-0.4,18.5,0,27.3c-5.1,1.9-8.7,6.7-8.7,12.4c0,1.3,0.2,2.5,0.5,3.7
	C35.1,128.5,31.8,129.7,28.8,130.6 M131.8,42.4c-2.5,5.7-6.9,13-13.9,21.6c-1.9-1.1-4.2-1.8-6.6-1.8c-3.7,0-7,1.5-9.4,3.9
	c-4-2.3-8.2-4.5-12.4-6.6C82,55.7,74.4,52.3,67,49.4c0.2-0.8,0.3-1.7,0.3-2.6c0-4.7-2.5-8.9-6.2-11.2c2.2-7.8,4.5-13.9,6.9-18.4
	c3.4-0.5,6.9-0.8,10.5-0.8C100.1,16.4,119.4,26.6,131.8,42.4 M54,40.4c3.6,0,6.5,2.9,6.5,6.4s-2.9,6.4-6.5,6.4
	c-3.6,0-6.5-2.9-6.5-6.4S50.4,40.4,54,40.4 M53.8,110.1c-0.4-8.5-0.5-17.3,0-26.3c0.4-8.2,1.2-16.3,2.3-24c3.1-0.5,5.9-2.1,7.9-4.4
	c7.5,2.9,15,6.3,22.6,10.1c4.1,2.1,8.1,4.2,12,6.4c-0.3,1.1-0.5,2.3-0.5,3.5c0,2.8,0.9,5.4,2.4,7.5c-4.4,4.3-9.1,8.5-14,12.6
	c-8.2,6.9-16.8,13.3-25.1,18.7C59.5,112.2,56.8,110.6,53.8,110.1 M133.1,29.4c0.9,1.1,1.3,2.9,1.1,5.2c-2.3-2.6-4.7-4.9-7.4-7.2
	C129.7,27.4,131.9,28,133.1,29.4 M78.3,6.8c1.5,0.1,3.1,1.1,4.7,3c-1.6-0.1-3.1-0.2-4.7-0.2c-1.9,0-3.7,0.1-5.6,0.2
	C74.8,7.7,76.7,6.7,78.3,6.8 M59.5,19.1c-2.1,4.9-3.7,10-5,14.6c-0.2,0-0.3,0-0.5,0c-5.3,0-9.9,3.1-12,7.7c-4.3-1.1-9.1-2.1-14-2.6
	C36.4,29.5,47.2,22.6,59.5,19.1 M7.2,48.8c0.9-1.8,3.4-3.1,7.5-3.6c-2.3,3.7-4.3,7.7-5.9,11.9C6.9,53.5,6.3,50.7,7.2,48.8
	 M13.3,130.3c-1.5-1.7-1.5-5.1-0.1-9.6c2.3,4,4.9,7.9,7.9,11.4C17,132.5,14.5,131.6,13.3,130.3 M34.4,135.9c2.5-0.9,5.1-1.9,8-3.2
	c2,1.9,4.6,3.2,7.5,3.6c0.7,3.4,1.5,7.1,2.5,10.6C45.9,144.1,39.8,140.4,34.4,135.9 M70.8,162.9c-0.1,0-0.1,0-0.2,0
	c-2-0.1-4.3-1.9-6.5-5.6c4.2,0.8,8.6,1.3,13.1,1.3C74.9,161.4,72.7,162.9,70.8,162.9 M78.4,151.9c-6.2,0-12.2-0.8-17.9-2.4
	c-1.4-3.9-2.7-8.6-3.8-14.3c4.8-2,8.1-6.7,8.1-12.2c0-0.9-0.1-1.9-0.3-2.7c8.7-5.6,17.8-12.4,26.4-19.6c5.2-4.4,10.1-8.9,14.8-13.4
	c1.7,0.8,3.6,1.3,5.7,1.3c3.2,0,6.2-1.2,8.5-3.1c10.7,7.8,18.3,14.9,22.8,20.7C133.4,132.9,108.1,151.9,78.4,151.9 M147.2,119.2
	c-0.7,1.4-2.3,2.4-4.7,3.1c1.7-2.8,3.1-5.6,4.4-8.6C147.9,116,147.9,117.8,147.2,119.2"/>
<path class="st1" d="M210.8,169l8.5-21.7h2.3L230,169h-2.1l-2.5-6.8h-9.9l-2.6,6.8H210.8z M216.2,160.5h8.5l-4.3-11.4L216.2,160.5z"
	/>
<path class="st1" d="M236.7,164.2c0.3,1.3,0.8,2.3,1.5,2.8c0.7,0.6,1.8,0.8,3.2,0.8c0.7,0,1.2-0.1,1.7-0.2c0.5-0.2,0.9-0.4,1.2-0.6
	c0.3-0.3,0.5-0.6,0.7-0.9c0.2-0.3,0.2-0.7,0.2-1.1c0-0.8-0.2-1.3-0.7-1.7c-0.5-0.4-1.1-0.7-1.9-0.9c-0.7-0.2-1.6-0.4-2.4-0.5
	c-0.9-0.1-1.7-0.4-2.4-0.7c-0.7-0.3-1.4-0.7-1.9-1.3c-0.5-0.6-0.7-1.4-0.7-2.4c0-1.3,0.5-2.4,1.4-3.2c1-0.8,2.3-1.2,4.1-1.2
	c1.7,0,3.1,0.4,4.1,1.1s1.7,2,1.9,3.8h-1.8c-0.2-1.2-0.6-2.1-1.4-2.5c-0.8-0.5-1.7-0.7-2.9-0.7s-2,0.2-2.6,0.7
	c-0.6,0.5-0.9,1.1-0.9,1.9c0,0.7,0.2,1.2,0.7,1.6c0.5,0.4,1.1,0.7,1.9,0.9c0.7,0.2,1.5,0.4,2.4,0.6c0.9,0.2,1.7,0.4,2.4,0.8
	c0.7,0.3,1.4,0.8,1.9,1.3c0.5,0.6,0.7,1.3,0.7,2.3c0,0.7-0.2,1.4-0.5,2c-0.3,0.6-0.8,1-1.3,1.4c-0.6,0.4-1.2,0.7-2,0.9
	c-0.8,0.2-1.6,0.3-2.6,0.3c-0.9,0-1.7-0.1-2.5-0.4c-0.7-0.3-1.3-0.6-1.8-1.1c-0.5-0.5-0.9-1-1.2-1.7c-0.3-0.6-0.4-1.3-0.5-2.1H236.7
	z"/>
<path class="st1" d="M254.9,161.7c0,0.8,0.1,1.6,0.3,2.4c0.2,0.8,0.5,1.4,1,2c0.4,0.6,1,1,1.6,1.3c0.7,0.3,1.4,0.5,2.3,0.5
	c1.2,0,2.2-0.3,3-0.9c0.8-0.6,1.4-1.5,1.7-2.7h2c-0.2,0.7-0.5,1.4-0.9,2.1c-0.4,0.6-0.8,1.2-1.4,1.7c-0.5,0.5-1.2,0.8-1.9,1.1
	c-0.7,0.3-1.6,0.4-2.6,0.4c-1.2,0-2.3-0.2-3.2-0.6c-0.9-0.4-1.7-1-2.2-1.7c-0.6-0.7-1-1.6-1.3-2.6c-0.3-1-0.4-2.1-0.4-3.2
	c0-1.1,0.2-2.2,0.5-3.2c0.3-1,0.8-1.9,1.4-2.6c0.6-0.8,1.4-1.3,2.2-1.8c0.9-0.4,1.9-0.6,3-0.6c2.2,0,3.8,0.7,5.1,2.2
	c1.2,1.5,1.8,3.6,1.8,6.4H254.9z M265.1,160.1c0-0.8-0.1-1.5-0.3-2.2c-0.2-0.7-0.5-1.3-0.9-1.7c-0.4-0.5-0.9-0.9-1.6-1.2
	c-0.6-0.3-1.3-0.4-2.1-0.4c-0.8,0-1.5,0.1-2.1,0.5c-0.6,0.3-1.1,0.7-1.6,1.2c-0.4,0.5-0.8,1.1-1,1.7c-0.3,0.7-0.4,1.4-0.5,2.1H265.1
	z"/>
<path class="st1" d="M274.6,164.2c0.3,1.3,0.8,2.3,1.5,2.8c0.7,0.6,1.8,0.8,3.2,0.8c0.7,0,1.2-0.1,1.7-0.2c0.5-0.2,0.9-0.4,1.2-0.6
	c0.3-0.3,0.5-0.6,0.7-0.9c0.2-0.3,0.2-0.7,0.2-1.1c0-0.8-0.2-1.3-0.7-1.7c-0.5-0.4-1.1-0.7-1.9-0.9c-0.7-0.2-1.5-0.4-2.4-0.5
	c-0.9-0.1-1.7-0.4-2.4-0.7c-0.7-0.3-1.4-0.7-1.9-1.3c-0.5-0.6-0.7-1.4-0.7-2.4c0-1.3,0.5-2.4,1.4-3.2c1-0.8,2.3-1.2,4.1-1.2
	c1.7,0,3.1,0.4,4.1,1.1s1.7,2,1.9,3.8h-1.8c-0.2-1.2-0.6-2.1-1.4-2.5c-0.8-0.5-1.7-0.7-2.9-0.7c-1.1,0-2,0.2-2.6,0.7
	c-0.6,0.5-0.9,1.1-0.9,1.9c0,0.7,0.2,1.2,0.7,1.6c0.5,0.4,1.1,0.7,1.9,0.9c0.7,0.2,1.5,0.4,2.4,0.6c0.9,0.2,1.7,0.4,2.4,0.8
	c0.7,0.3,1.4,0.8,1.9,1.3c0.5,0.6,0.7,1.3,0.7,2.3c0,0.7-0.2,1.4-0.5,2c-0.3,0.6-0.8,1-1.3,1.4c-0.6,0.4-1.2,0.7-2,0.9
	c-0.8,0.2-1.6,0.3-2.5,0.3c-0.9,0-1.7-0.1-2.5-0.4c-0.7-0.3-1.3-0.6-1.8-1.1c-0.5-0.5-0.9-1-1.2-1.7c-0.3-0.6-0.4-1.3-0.5-2.1H274.6
	z"/>
<path class="st1" d="M297.9,169.5c-1,0-1.9-0.2-2.8-0.5c-0.9-0.3-1.6-0.9-2.3-1.5c-0.7-0.7-1.2-1.5-1.6-2.6c-0.4-1-0.6-2.2-0.6-3.6
	c0-1.1,0.2-2.2,0.5-3.2c0.3-1,0.8-1.9,1.4-2.6c0.6-0.7,1.4-1.3,2.3-1.8c0.9-0.4,2-0.6,3.2-0.6c1.2,0,2.3,0.2,3.2,0.6
	c0.9,0.4,1.7,1,2.3,1.7c0.6,0.7,1,1.6,1.3,2.6c0.3,1,0.4,2.1,0.4,3.2c0,1.2-0.2,2.4-0.5,3.4c-0.3,1-0.8,1.9-1.5,2.6
	c-0.6,0.7-1.4,1.3-2.3,1.7C300,169.3,299,169.5,297.9,169.5 M303.2,161.2c0-0.9-0.1-1.8-0.3-2.6c-0.2-0.8-0.5-1.5-0.9-2.1
	c-0.4-0.6-1-1.1-1.6-1.4c-0.7-0.3-1.5-0.5-2.4-0.5c-0.9,0-1.8,0.2-2.4,0.6c-0.7,0.4-1.2,0.9-1.6,1.5c-0.4,0.6-0.7,1.3-0.9,2.1
	c-0.2,0.8-0.3,1.6-0.3,2.5c0,1,0.1,1.9,0.3,2.7c0.2,0.8,0.6,1.5,1,2.1c0.4,0.6,1,1,1.7,1.4c0.7,0.3,1.4,0.5,2.3,0.5
	c0.9,0,1.8-0.2,2.4-0.6c0.7-0.4,1.2-0.9,1.6-1.5c0.4-0.6,0.7-1.3,0.9-2.1C303.1,162.9,303.2,162.1,303.2,161.2"/>
<path class="st1" d="M313.4,169h-1.8v-15.6h1.8v2.9h0.1c0.5-1.2,1.2-2.1,1.9-2.6c0.8-0.5,1.8-0.7,3.2-0.7v2c-1,0-1.9,0.1-2.5,0.5
	c-0.7,0.3-1.2,0.8-1.6,1.4c-0.4,0.6-0.7,1.3-0.8,2.1c-0.1,0.8-0.2,1.6-0.2,2.5V169z"/>
<path class="st1" d="M323.3,151.7l3.3-4.2h2.3l-4.1,4.2H323.3z M324.7,153.4h1.8V169h-1.8V153.4z"/>
<path class="st1" d="M341.4,159.9c0.3,0,0.7-0.1,1.2-0.2c0.5-0.1,0.9-0.2,1.2-0.3c0.3-0.1,0.5-0.4,0.6-0.7c0.1-0.3,0.1-0.6,0.1-0.9
	c0-0.9-0.3-1.7-0.9-2.3c-0.6-0.6-1.6-0.9-3-0.9c-0.6,0-1.2,0.1-1.7,0.2c-0.5,0.1-1,0.3-1.4,0.6c-0.4,0.3-0.7,0.6-1,1.1
	c-0.3,0.5-0.4,1-0.5,1.7h-1.8c0.1-0.9,0.3-1.7,0.6-2.4c0.4-0.7,0.8-1.2,1.4-1.6c0.6-0.4,1.2-0.7,2-0.9c0.8-0.2,1.6-0.3,2.4-0.3
	c0.8,0,1.5,0.1,2.2,0.3c0.7,0.2,1.3,0.4,1.8,0.8c0.5,0.4,0.9,0.9,1.2,1.5c0.3,0.6,0.4,1.4,0.4,2.3v8.5c0,0.7,0.1,1.1,0.4,1.3
	c0.3,0.2,0.8,0.1,1.5-0.1v1.4c-0.1,0-0.3,0.1-0.6,0.2c-0.3,0.1-0.5,0.1-0.8,0.1c-0.3,0-0.6,0-0.8-0.1c-0.3,0-0.5-0.1-0.7-0.3
	c-0.2-0.1-0.3-0.3-0.4-0.5c-0.1-0.2-0.2-0.4-0.2-0.7c0-0.2-0.1-0.5-0.1-0.8c-0.8,0.8-1.6,1.5-2.6,1.9c-1,0.4-2.1,0.7-3.2,0.7
	c-0.7,0-1.3-0.1-2-0.3c-0.6-0.2-1.2-0.5-1.7-0.8c-0.5-0.4-0.9-0.8-1.1-1.4c-0.3-0.6-0.4-1.2-0.4-2c0-2.7,1.8-4.2,5.5-4.7
	L341.4,159.9z M344.5,160.8c-0.8,0.3-1.5,0.5-2.3,0.6c-0.8,0.1-1.6,0.2-2.4,0.2c-1.4,0.1-2.5,0.4-3.2,0.9c-0.8,0.5-1.2,1.3-1.2,2.4
	c0,0.5,0.1,0.9,0.3,1.2c0.2,0.4,0.4,0.6,0.8,0.9c0.3,0.2,0.7,0.4,1.1,0.5c0.4,0.1,0.8,0.2,1.3,0.2c0.7,0,1.4-0.1,2.1-0.3
	c0.7-0.2,1.3-0.5,1.8-0.8c0.5-0.4,1-0.8,1.3-1.4c0.3-0.6,0.5-1.3,0.5-2V160.8z"/>
<polygon class="st1" points="365.5,169 365.5,147.3 379.5,147.3 379.5,149.1 367.5,149.1 367.5,156.9 378.4,156.9 378.4,158.7 
	367.5,158.7 367.5,169 "/>
<path class="st1" d="M385.4,147.3h2v2.7h-2V147.3z M385.5,153.4h1.8V169h-1.8V153.4z"/>
<path class="st1" d="M396.7,169h-1.8v-15.6h1.8v2.2c0.7-0.8,1.5-1.4,2.2-1.9c0.8-0.5,1.7-0.7,2.8-0.7c1,0,1.9,0.2,2.7,0.5
	c0.8,0.3,1.5,0.9,2.1,1.7c0.4,0.6,0.6,1.1,0.7,1.7c0.1,0.6,0.1,1.2,0.1,1.9V169h-1.8v-10.2c0-1.4-0.3-2.5-0.9-3.2
	c-0.6-0.7-1.7-1.1-3.1-1.1c-0.6,0-1.1,0.1-1.5,0.3c-0.5,0.2-0.9,0.4-1.3,0.7c-0.4,0.3-0.7,0.6-0.9,1c-0.3,0.4-0.5,0.7-0.6,1.1
	c-0.2,0.5-0.3,1-0.3,1.4c0,0.5-0.1,1-0.1,1.5V169z"/>
<path class="st1" d="M421.9,159.9c0.3,0,0.7-0.1,1.2-0.2c0.5-0.1,0.9-0.2,1.2-0.3c0.3-0.1,0.5-0.4,0.6-0.7c0.1-0.3,0.1-0.6,0.1-0.9
	c0-0.9-0.3-1.7-0.9-2.3c-0.6-0.6-1.6-0.9-3-0.9c-0.6,0-1.2,0.1-1.7,0.2c-0.5,0.1-1,0.3-1.4,0.6c-0.4,0.3-0.7,0.6-1,1.1
	c-0.3,0.5-0.4,1-0.5,1.7h-1.8c0.1-0.9,0.3-1.7,0.6-2.4c0.4-0.7,0.8-1.2,1.4-1.6c0.6-0.4,1.2-0.7,2-0.9c0.8-0.2,1.6-0.3,2.4-0.3
	c0.8,0,1.5,0.1,2.2,0.3c0.7,0.2,1.3,0.4,1.8,0.8c0.5,0.4,0.9,0.9,1.2,1.5c0.3,0.6,0.4,1.4,0.4,2.3v8.5c0,0.7,0.1,1.1,0.4,1.3
	c0.3,0.2,0.8,0.1,1.5-0.1v1.4c-0.1,0-0.3,0.1-0.6,0.2c-0.3,0.1-0.5,0.1-0.8,0.1c-0.3,0-0.6,0-0.8-0.1c-0.3,0-0.5-0.1-0.7-0.3
	c-0.2-0.1-0.3-0.3-0.4-0.5c-0.1-0.2-0.2-0.4-0.2-0.7c0-0.2-0.1-0.5-0.1-0.8c-0.8,0.8-1.6,1.5-2.6,1.9c-1,0.4-2,0.7-3.2,0.7
	c-0.7,0-1.3-0.1-2-0.3c-0.6-0.2-1.2-0.5-1.7-0.8c-0.5-0.4-0.9-0.8-1.1-1.4c-0.3-0.6-0.4-1.2-0.4-2c0-2.7,1.8-4.2,5.5-4.7
	L421.9,159.9z M425,160.8c-0.8,0.3-1.5,0.5-2.3,0.6c-0.8,0.1-1.6,0.2-2.4,0.2c-1.4,0.1-2.5,0.4-3.2,0.9c-0.8,0.5-1.2,1.3-1.2,2.4
	c0,0.5,0.1,0.9,0.3,1.2c0.2,0.4,0.4,0.6,0.8,0.9c0.3,0.2,0.7,0.4,1.1,0.5c0.4,0.1,0.8,0.2,1.3,0.2c0.7,0,1.4-0.1,2.1-0.3
	c0.7-0.2,1.3-0.5,1.8-0.8c0.5-0.4,1-0.8,1.3-1.4c0.3-0.6,0.5-1.3,0.5-2V160.8z"/>
<path class="st1" d="M436.3,169h-1.8v-15.6h1.8v2.2c0.7-0.8,1.5-1.4,2.2-1.9c0.8-0.5,1.7-0.7,2.8-0.7c1,0,1.9,0.2,2.7,0.5
	c0.8,0.3,1.5,0.9,2.1,1.7c0.4,0.6,0.6,1.1,0.7,1.7c0.1,0.6,0.1,1.2,0.1,1.9V169h-1.8v-10.2c0-1.4-0.3-2.5-0.9-3.2
	c-0.6-0.7-1.7-1.1-3.1-1.1c-0.6,0-1.1,0.1-1.5,0.3c-0.5,0.2-0.9,0.4-1.3,0.7c-0.4,0.3-0.7,0.6-1,1c-0.3,0.4-0.5,0.7-0.6,1.1
	c-0.2,0.5-0.3,1-0.3,1.4c0,0.5-0.1,1-0.1,1.5V169z"/>
<path class="st1" d="M465.4,158.3c-0.3-1.2-0.9-2.1-1.7-2.7c-0.8-0.7-1.8-1-3-1c-0.9,0-1.7,0.2-2.4,0.6c-0.7,0.4-1.2,0.9-1.6,1.5
	c-0.4,0.6-0.7,1.3-0.9,2.1c-0.2,0.8-0.3,1.6-0.3,2.4c0,0.8,0.1,1.6,0.3,2.4c0.2,0.8,0.5,1.5,0.9,2.1c0.4,0.6,1,1.1,1.6,1.5
	c0.7,0.4,1.5,0.6,2.4,0.6c1.3,0,2.4-0.4,3.2-1.1c0.8-0.7,1.3-1.8,1.6-3.1h1.9c-0.2,0.9-0.4,1.7-0.8,2.4c-0.4,0.7-0.8,1.3-1.4,1.8
	c-0.6,0.5-1.2,0.9-2,1.2c-0.8,0.3-1.6,0.4-2.6,0.4c-1.2,0-2.3-0.2-3.2-0.6c-0.9-0.4-1.6-1-2.2-1.7c-0.6-0.7-1-1.6-1.3-2.6
	c-0.3-1-0.4-2.1-0.4-3.2c0-1.1,0.2-2.1,0.5-3.1c0.3-1,0.8-1.9,1.4-2.6c0.6-0.8,1.4-1.4,2.2-1.8c0.9-0.5,1.9-0.7,3.1-0.7
	c1.8,0,3.3,0.4,4.4,1.3s1.8,2.2,2.1,4H465.4z"/>
<path class="st1" d="M474.3,147.3h2v2.7h-2V147.3z M474.4,153.4h1.8V169h-1.8V153.4z"/>
<path class="st1" d="M484.9,161.7c0,0.8,0.1,1.6,0.3,2.4c0.2,0.8,0.5,1.4,1,2c0.4,0.6,1,1,1.6,1.3c0.7,0.3,1.4,0.5,2.3,0.5
	c1.2,0,2.2-0.3,3-0.9c0.8-0.6,1.4-1.5,1.7-2.7h2c-0.2,0.7-0.5,1.4-0.9,2.1c-0.4,0.6-0.8,1.2-1.4,1.7c-0.5,0.5-1.2,0.8-1.9,1.1
	c-0.7,0.3-1.6,0.4-2.6,0.4c-1.2,0-2.3-0.2-3.2-0.6c-0.9-0.4-1.7-1-2.2-1.7c-0.6-0.7-1-1.6-1.3-2.6c-0.3-1-0.4-2.1-0.4-3.2
	c0-1.1,0.2-2.2,0.5-3.2c0.3-1,0.8-1.9,1.4-2.6c0.6-0.8,1.4-1.3,2.2-1.8c0.9-0.4,1.9-0.6,3-0.6c2.2,0,3.8,0.7,5.1,2.2
	s1.8,3.6,1.8,6.4H484.9z M495.1,160.1c0-0.8-0.1-1.5-0.3-2.2c-0.2-0.7-0.5-1.3-0.9-1.7c-0.4-0.5-0.9-0.9-1.6-1.2
	c-0.6-0.3-1.3-0.4-2.1-0.4c-0.8,0-1.5,0.1-2.1,0.5c-0.6,0.3-1.1,0.7-1.6,1.2c-0.4,0.5-0.8,1.1-1,1.7c-0.3,0.7-0.4,1.4-0.5,2.1H495.1
	z"/>
<path class="st1" d="M505.5,169h-1.8v-15.6h1.8v2.9h0.1c0.5-1.2,1.2-2.1,1.9-2.6c0.8-0.5,1.8-0.7,3.2-0.7v2c-1,0-1.9,0.1-2.5,0.5
	c-0.7,0.3-1.2,0.8-1.6,1.4c-0.4,0.6-0.7,1.3-0.8,2.1c-0.2,0.8-0.2,1.6-0.2,2.5V169z"/>
<path class="st1" d="M523.8,159.9c0.3,0,0.7-0.1,1.2-0.2c0.5-0.1,0.9-0.2,1.2-0.3c0.3-0.1,0.5-0.4,0.6-0.7c0.1-0.3,0.1-0.6,0.1-0.9
	c0-0.9-0.3-1.7-0.9-2.3c-0.6-0.6-1.6-0.9-3-0.9c-0.6,0-1.2,0.1-1.7,0.2c-0.5,0.1-1,0.3-1.4,0.6c-0.4,0.3-0.7,0.6-1,1.1
	c-0.2,0.5-0.4,1-0.5,1.7h-1.8c0.1-0.9,0.3-1.7,0.6-2.4c0.4-0.7,0.8-1.2,1.4-1.6c0.6-0.4,1.2-0.7,2-0.9c0.8-0.2,1.6-0.3,2.4-0.3
	c0.8,0,1.5,0.1,2.2,0.3c0.7,0.2,1.3,0.4,1.8,0.8c0.5,0.4,0.9,0.9,1.2,1.5c0.3,0.6,0.4,1.4,0.4,2.3v8.5c0,0.7,0.1,1.1,0.4,1.3
	c0.3,0.2,0.8,0.1,1.5-0.1v1.4c-0.1,0-0.3,0.1-0.6,0.2c-0.3,0.1-0.5,0.1-0.8,0.1c-0.3,0-0.6,0-0.8-0.1c-0.3,0-0.5-0.1-0.7-0.3
	c-0.2-0.1-0.3-0.3-0.4-0.5c-0.1-0.2-0.2-0.4-0.2-0.7c0-0.2-0.1-0.5-0.1-0.8c-0.8,0.8-1.6,1.5-2.6,1.9c-1,0.4-2,0.7-3.2,0.7
	c-0.7,0-1.3-0.1-2-0.3c-0.6-0.2-1.2-0.5-1.7-0.8c-0.5-0.4-0.9-0.8-1.1-1.4c-0.3-0.6-0.4-1.2-0.4-2c0-2.7,1.8-4.2,5.5-4.7
	L523.8,159.9z M526.9,160.8c-0.8,0.3-1.5,0.5-2.3,0.6c-0.8,0.1-1.6,0.2-2.4,0.2c-1.4,0.1-2.5,0.4-3.2,0.9c-0.8,0.5-1.2,1.3-1.2,2.4
	c0,0.5,0.1,0.9,0.3,1.2c0.2,0.4,0.4,0.6,0.8,0.9c0.3,0.2,0.7,0.4,1.1,0.5c0.4,0.1,0.8,0.2,1.3,0.2c0.7,0,1.4-0.1,2.1-0.3
	c0.7-0.2,1.3-0.5,1.8-0.8c0.5-0.4,1-0.8,1.3-1.4c0.3-0.6,0.5-1.3,0.5-2V160.8z"/>
<polygon class="st2" points="210.8,42.1 219,42.1 244.1,100.5 269.6,42.1 277.8,42.1 244.9,117.7 243.2,117.7 "/>
<rect x="305.2" y="42.1" class="st2" width="7.6" height="75.6"/>
<polygon class="st2" points="345.9,117.7 345.9,42.1 347.6,42.1 397.9,100 397.9,42.1 405.4,42.1 405.4,117.7 403.7,117.7 
	353.8,60.4 353.8,117.7 "/>
<rect x="438.5" y="42.1" class="st2" width="7.6" height="75.6"/>
<polygon class="st2" points="479.2,42.1 486.9,42.1 486.9,70.5 517.2,42.1 527.3,42.1 491,76 530.2,117.7 520.1,117.7 486.9,82.5 
	486.9,117.7 479.2,117.7 "/>
</svg>
