<?xml version="1.0" encoding="utf-8"?>
<!-- Generator: Adobe Illustrator 21.1.0, SVG Export Plug-In . SVG Version: 6.00 Build 0)  -->
<svg version="1.1" id="Layer_1" xmlns="http://www.w3.org/2000/svg" xmlns:xlink="http://www.w3.org/1999/xlink" x="0px" y="0px"
	 viewBox="0 0 216 216" style="enable-background:new 0 0 216 216;" xml:space="preserve">
<style type="text/css">
	.st0{clip-path:url(#SVGID_2_);}
</style>
<g>
	<defs>
		<rect id="SVGID_1_" width="216" height="216"/>
	</defs>
	<clipPath id="SVGID_2_">
		<use xlink:href="#SVGID_1_"  style="overflow:visible;"/>
	</clipPath>
	<g class="st0">
		<g>
			<path d="M65.4,95.1c0.1-0.1,0.2-0.1,0.3-0.2c0,0-0.1,0-0.1,0c1.4-1.2,2.8-2.4,4.2-3.7l1-11.7c0.1-0.6,0.6-1,1.2-1
				c0.6,0.1,1.1,0.6,1,1.2l-3.6,41.8H73c0.6,0,1.1,0.5,1.1,1.1s-0.5,1.1-1.1,1.1h-4.9h-78h-4.9c-0.6,0-1.1-0.5-1.1-1.1
				s0.5-1.1,1.1-1.1h3.7l-3.6-41.8c-0.1-0.6,0.4-1.1,1-1.2c0.6,0,1.1,0.4,1.2,1l1,11.4c0.1,0,0.1,0.1,0.2,0.2c0.3,0.2,0.7,0.5,1.2,1
				c1,0.8,2.5,1.9,4.3,3.3c0,0,0,0,0,0c0.5,0.2,3.1,1.3,7.3,2.4c1.4,0.4,3,0.8,4.7,1.1l6.9-8.1c0.9-1.1,2.2-1.7,3.5-1.6
				c1.3,0,2.7,0.6,3.6,1.8l6.1,7.8c0.3,0.3,0.7,0.5,1.1,0.5c0.1,0,0.2,0,0.2,0c0,0,0,0,0,0l10.4-2.6c0.4-0.1,0.8-0.1,1.1-0.1
				c1.3,0,2.5,0.5,3.3,1.4c0.6,0.6,1.1,1.4,1.3,2.3c0.1,0,0.2,0,0.3,0c-0.7-1-1.2-2.2-1.2-3.6c0-1.7,0.7-3.2,1.8-4.3
				c1.1-1.1,2.6-1.8,4.3-1.8c1.7,0,3.2,0.7,4.3,1.8c1.1,1.1,1.8,2.6,1.8,4.3c0,0.5-0.1,1-0.2,1.5c0.1,0,0.1,0,0.2-0.1c0,0,0,0,0,0
				c3.3-0.8,6.8-1.8,10.3-3C65.5,95,65.4,95,65.4,95.1z M66.4,97L66.4,97c0,0-0.1,0-0.1,0C66.3,97,66.4,97,66.4,97
				C66.4,97,66.4,97,66.4,97z M66.7,96.8c-7.8,6.5-15.7,11.3-22.6,14.2v2.9c0,0.8-0.3,1.6-0.9,2.1c-0.5,0.5-1.3,0.9-2.1,0.9
				s-1.6-0.3-2.1-0.9c-0.5-0.5-0.9-1.3-0.9-2.1v-0.7c-3.1,0.9-5.9,1.4-8.3,1.4c-2.9,0-6.1-0.7-9.3-1.8c-3.3-1.1-6.7-2.7-10-4.5
				c-6.6-3.5-12.9-7.8-17.3-11.1c0,0-0.1,0-0.1-0.1c0,0,0,0,0,0c-1.8-1.3-3.2-2.4-4.2-3.2l2.3,27.6h16V120c0-0.6,0.5-1.1,1.1-1.1
				c0.6,0,1.1,0.5,1.1,1.1v1.5h3.5v-4.9c0-0.6,0.5-1.1,1.1-1.1s1.1,0.5,1.1,1.1v4.9h36V118c0-0.6,0.5-1.1,1.1-1.1s1.1,0.5,1.1,1.1
				v3.5h2.2v-2c0-0.6,0.5-1.1,1.1-1.1s1.1,0.5,1.1,1.1v2h2.3v-6.7c0-0.6,0.5-1.1,1.1-1.1c0.6,0,1.1,0.5,1.1,1.1v6.7h4.8l2.3-27
				c-0.9,0.8-1.7,1.5-2.6,2.3C66.8,96.7,66.8,96.8,66.7,96.8L66.7,96.8L66.7,96.8C66.8,96.8,66.8,96.8,66.7,96.8
				C66.7,96.8,66.7,96.8,66.7,96.8C66.7,96.8,66.7,96.8,66.7,96.8C66.7,96.8,66.7,96.8,66.7,96.8C66.7,96.8,66.7,96.8,66.7,96.8
				L66.7,96.8C66.7,96.8,66.7,96.8,66.7,96.8z M26.4,101.2c-0.7-0.2-1.3-0.6-1.8-1.2l-6.1-7.8c-0.5-0.6-1.2-0.9-1.9-0.9
				c-0.7,0-1.4,0.3-1.9,0.9l-6.1,7.2c0.8,0.2,1.7,0.3,2.6,0.5l3.9-4.3c0.4-0.4,0.9-0.7,1.4-0.7c0.3,0,0.6,0.1,0.9,0.2
				c0.3,0.2,0.5,0.4,0.7,0.7l3.2,5.2C23.1,101.1,24.8,101.2,26.4,101.2z M39.4,100.8c0,0,0.1,0,0.1,0c0,0,0.1,0,0.1,0.1
				c0,0,0.1,0,0.1,0.1c0,0,0.1,0,0.1,0.1c0,0,0,0,0,0c0,0,0,0,0.1,0.1c0,0,0.1,0.1,0.1,0.1c0,0,0,0.1,0.1,0.1c0,0.1,0.1,0.1,0.1,0.2
				c0,0,0,0.1,0,0.1c0,0,0,0.1,0,0.1c0,0,0,0.1,0,0.1v9.9v2.2c0,0.2,0.1,0.4,0.2,0.6s0.4,0.2,0.6,0.2c0.2,0,0.4-0.1,0.6-0.2
				s0.2-0.4,0.2-0.6v-3.6v-8.9v-0.2c0-0.7-0.3-1.4-0.8-1.8c-0.5-0.5-1.1-0.7-1.8-0.7c-0.2,0-0.4,0-0.6,0.1l-10.2,2.5
				c3.3,0,6.8-0.1,10.5-0.5c0,0,0,0,0,0c0,0,0.1,0,0.1,0c0,0,0.1,0,0.1,0c0,0,0,0,0,0C39.3,100.7,39.4,100.7,39.4,100.8z M60.7,98.8
				c-1.7,0.5-3.3,0.9-4.9,1.3c0,0,0,0,0,0c-0.9,0.2-1.7,0.4-2.6,0.6c-1.7,0.4-3.4,0.7-5,1c-0.4,0.1-0.9,0.1-1.3,0.2c0,0,0,0-0.1,0
				c-0.9,0.2-1.8,0.3-2.8,0.4v6.3C49.2,106.4,54.9,103.1,60.7,98.8z M52.9,96.5c0-1.1-0.4-2-1.1-2.7c-0.7-0.7-1.6-1.1-2.7-1.1
				s-2,0.4-2.7,1.1c-0.7,0.7-1.1,1.6-1.1,2.7c0,1.3,0.7,2.4,1.6,3.1c0.3,0,0.6-0.1,0.9-0.1c1.5-0.3,3-0.6,4.5-0.9
				C52.7,98,52.9,97.3,52.9,96.5z M38,110.9V103c-3.3,0.3-6.5,0.4-9.5,0.4c-2.7,0-5.2-0.1-7.7-0.3c-8.3-0.6-15.1-2-19.8-3.3
				c-0.1,0-0.3-0.1-0.4-0.1c1.9,1.3,3.9,2.6,6.1,3.8c4.7,2.8,9.7,5.4,14.4,7.1c3.1,1.1,6.1,1.7,8.6,1.7
				C32,112.4,34.8,111.9,38,110.9z M18.8,100.8l-2.2-3.6l-2.7,3C15.5,100.5,17.1,100.6,18.8,100.8z"/>
			<path d="M15.8,53.2c4.3,0,7.8,3.5,7.8,7.8s-3.5,7.8-7.8,7.8C11.5,68.8,8,65.3,8,61S11.5,53.2,15.8,53.2z M21.4,61
				c0-1.5-0.6-2.9-1.6-3.9c-1-1-2.4-1.6-3.9-1.6c-1.5,0-2.9,0.6-3.9,1.6c-1,1-1.6,2.4-1.6,3.9c0,1.5,0.6,2.9,1.6,3.9
				c1,1,2.4,1.6,3.9,1.6c1.5,0,2.9-0.6,3.9-1.6C20.8,63.9,21.4,62.5,21.4,61z"/>
			<path d="M8.8,68c0.4,0.4,0.4,1.1,0,1.6l-2.4,2.4c-0.4,0.4-1.1,0.4-1.6,0c-0.4-0.4-0.4-1.1,0-1.6L7.3,68C7.7,67.5,8.4,67.5,8.8,68
				z"/>
			<path d="M16.9,71.9v3.4c0,0.6-0.5,1.1-1.1,1.1s-1.1-0.5-1.1-1.1v-3.4c0-0.6,0.5-1.1,1.1-1.1C16.4,70.9,16.9,71.3,16.9,71.9z"/>
			<path d="M26.7,70.3c0.4,0.4,0.4,1.1,0,1.6c-0.4,0.4-1.1,0.4-1.5,0l-2.4-2.4c-0.4-0.4-0.4-1.1,0-1.6c0.4-0.4,1.1-0.4,1.5,0
				L26.7,70.3z"/>
			<path d="M30.1,59.9c0.6,0,1.1,0.5,1.1,1.1s-0.5,1.1-1.1,1.1h-3.3c-0.6,0-1.1-0.5-1.1-1.1c0-0.6,0.5-1.1,1.1-1.1H30.1z"/>
			<path d="M26.7,50.1c0.4,0.4,0.4,1.1,0,1.6L24.3,54c-0.4,0.4-1.1,0.4-1.6,0c-0.4-0.4-0.4-1.1,0-1.5l2.3-2.3
				C25.6,49.7,26.3,49.7,26.7,50.1z"/>
			<path d="M16.9,46.7V50c0,0.6-0.5,1.1-1.1,1.1s-1.1-0.5-1.1-1.1v-3.3c0-0.6,0.5-1.1,1.1-1.1C16.4,45.6,16.9,46.1,16.9,46.7z"/>
			<path d="M8.8,52.5c0.4,0.4,0.4,1.1,0,1.6c-0.4,0.4-1.1,0.4-1.6,0l-2.3-2.4c-0.4-0.4-0.4-1.1,0-1.5c0.4-0.4,1.1-0.4,1.6,0
				L8.8,52.5z"/>
			<path d="M4.8,59.9c0.6,0,1.1,0.5,1.1,1.1s-0.5,1.1-1.1,1.1H1.5c-0.6,0-1.1-0.5-1.1-1.1c0-0.6,0.5-1.1,1.1-1.1H4.8z"/>
		</g>
	</g>
	<g class="st0">
		<g>
			<path d="M281,95.1c0.1-0.1,0.2-0.1,0.3-0.2c0,0-0.1,0-0.1,0c1.4-1.2,2.8-2.4,4.2-3.7l1-11.7c0.1-0.6,0.6-1,1.2-1
				c0.6,0.1,1.1,0.6,1,1.2l-3.6,41.8h3.7c0.6,0,1.1,0.5,1.1,1.1s-0.5,1.1-1.1,1.1h-4.9h-78h-4.9c-0.6,0-1.1-0.5-1.1-1.1
				s0.5-1.1,1.1-1.1h3.7l-3.6-41.8c-0.1-0.6,0.4-1.1,1-1.2c0.6,0,1.1,0.4,1.2,1l1,11.4c0.1,0,0.1,0.1,0.2,0.2c0.3,0.2,0.7,0.5,1.2,1
				c1,0.8,2.5,1.9,4.3,3.3c0,0,0,0,0,0c0.5,0.2,3.1,1.3,7.3,2.4c1.4,0.4,2.9,0.8,4.7,1.1l6.9-8.1c0.9-1.1,2.2-1.7,3.5-1.6
				c1.3,0,2.7,0.6,3.6,1.8l6.1,7.8c0.3,0.3,0.7,0.5,1.1,0.5c0.1,0,0.2,0,0.2,0c0,0,0,0,0,0l10.4-2.6c0.4-0.1,0.8-0.1,1.1-0.1
				c1.3,0,2.5,0.5,3.3,1.4c0.6,0.6,1.1,1.4,1.3,2.3c0.1,0,0.2,0,0.3,0c-0.7-1-1.2-2.2-1.2-3.6c0-1.7,0.7-3.2,1.8-4.3
				c1.1-1.1,2.6-1.8,4.3-1.8c1.7,0,3.2,0.7,4.3,1.8c1.1,1.1,1.8,2.6,1.8,4.3c0,0.5-0.1,1-0.2,1.5c0.1,0,0.1,0,0.2-0.1c0,0,0,0,0,0
				c3.3-0.8,6.8-1.8,10.3-3C281.1,95,281.1,95,281,95.1z M282.1,97L282.1,97c0,0-0.1,0-0.1,0C282,97,282,97,282.1,97
				C282.1,97,282.1,97,282.1,97z M282.4,96.8c-7.8,6.5-15.7,11.3-22.6,14.2v2.9c0,0.8-0.3,1.6-0.9,2.1c-0.5,0.5-1.3,0.9-2.1,0.9
				c-0.8,0-1.6-0.3-2.1-0.9c-0.5-0.5-0.9-1.3-0.9-2.1v-0.7c-3.1,0.9-5.9,1.4-8.3,1.4c-2.9,0-6.1-0.7-9.3-1.8
				c-3.3-1.1-6.7-2.7-10-4.5c-6.6-3.5-12.9-7.8-17.3-11.1c0,0-0.1,0-0.1-0.1c0,0,0,0,0,0c-1.8-1.3-3.2-2.4-4.2-3.2l2.3,27.6h16V120
				c0-0.6,0.5-1.1,1.1-1.1s1.1,0.5,1.1,1.1v1.5h3.5v-4.9c0-0.6,0.5-1.1,1.1-1.1s1.1,0.5,1.1,1.1v4.9h36V118c0-0.6,0.5-1.1,1.1-1.1
				c0.6,0,1.1,0.5,1.1,1.1v3.5h2.2v-2c0-0.6,0.5-1.1,1.1-1.1c0.6,0,1.1,0.5,1.1,1.1v2h2.3v-6.7c0-0.6,0.5-1.1,1.1-1.1
				c0.6,0,1.1,0.5,1.1,1.1v6.7h4.8l2.3-27c-0.9,0.8-1.7,1.5-2.6,2.3C282.5,96.7,282.5,96.8,282.4,96.8L282.4,96.8L282.4,96.8
				C282.4,96.8,282.4,96.8,282.4,96.8C282.4,96.8,282.4,96.8,282.4,96.8C282.4,96.8,282.4,96.8,282.4,96.8
				C282.4,96.8,282.4,96.8,282.4,96.8C282.4,96.8,282.4,96.8,282.4,96.8L282.4,96.8C282.4,96.8,282.4,96.8,282.4,96.8z M242.1,101.2
				c-0.7-0.2-1.3-0.6-1.8-1.2l-6.1-7.8c-0.5-0.6-1.2-0.9-1.9-0.9c-0.7,0-1.4,0.3-1.9,0.9l-6.1,7.2c0.8,0.2,1.7,0.3,2.6,0.5l3.9-4.3
				c0.4-0.4,0.9-0.7,1.4-0.7c0.3,0,0.6,0.1,0.9,0.2c0.3,0.2,0.5,0.4,0.7,0.7l3.2,5.2C238.8,101.1,240.4,101.2,242.1,101.2z
				 M255.1,100.8c0,0,0.1,0,0.1,0c0,0,0.1,0,0.1,0.1c0,0,0.1,0,0.1,0.1c0,0,0.1,0,0.1,0.1c0,0,0,0,0,0c0,0,0,0,0.1,0.1
				c0,0,0.1,0.1,0.1,0.1c0,0,0,0.1,0.1,0.1c0,0.1,0.1,0.1,0.1,0.2c0,0,0,0.1,0,0.1c0,0,0,0.1,0,0.1c0,0,0,0.1,0,0.1v9.9v2.2
				c0,0.2,0.1,0.4,0.2,0.6c0.2,0.2,0.4,0.2,0.6,0.2c0.2,0,0.4-0.1,0.6-0.2c0.2-0.2,0.2-0.4,0.2-0.6v-3.6v-8.9v-0.2
				c0-0.7-0.3-1.4-0.8-1.8c-0.5-0.5-1.1-0.7-1.8-0.7c-0.2,0-0.4,0-0.6,0.1l-10.2,2.5c3.3,0,6.8-0.1,10.5-0.5c0,0,0,0,0,0
				c0,0,0.1,0,0.1,0c0,0,0.1,0,0.1,0c0,0,0,0,0,0C255,100.7,255,100.7,255.1,100.8z M276.4,98.8c-1.7,0.5-3.3,0.9-4.9,1.3
				c0,0,0,0,0,0c-0.9,0.2-1.7,0.4-2.6,0.6c-1.7,0.4-3.4,0.7-5,1c-0.4,0.1-0.9,0.1-1.3,0.2c0,0,0,0-0.1,0c-0.9,0.2-1.8,0.3-2.8,0.4
				v6.3C264.9,106.4,270.6,103.1,276.4,98.8z M268.6,96.5c0-1.1-0.4-2-1.1-2.7c-0.7-0.7-1.6-1.1-2.7-1.1s-2,0.4-2.7,1.1
				c-0.7,0.7-1.1,1.6-1.1,2.7c0,1.3,0.7,2.4,1.6,3.1c0.3,0,0.6-0.1,0.9-0.1c1.5-0.3,3-0.6,4.5-0.9C268.4,98,268.6,97.3,268.6,96.5z
				 M253.7,110.9V103c-3.3,0.3-6.5,0.4-9.5,0.4c-2.7,0-5.2-0.1-7.7-0.3c-8.3-0.6-15.1-2-19.8-3.3c-0.1,0-0.3-0.1-0.4-0.1
				c1.9,1.3,3.9,2.6,6.1,3.8c4.7,2.8,9.7,5.4,14.4,7.1c3.1,1.1,6.1,1.7,8.6,1.7C247.6,112.4,250.5,111.9,253.7,110.9z M234.5,100.8
				l-2.2-3.6l-2.7,3C231.1,100.5,232.8,100.6,234.5,100.8z"/>
			<path d="M231.5,53.2c4.3,0,7.8,3.5,7.8,7.8s-3.5,7.8-7.8,7.8c-4.3,0-7.8-3.5-7.8-7.8S227.2,53.2,231.5,53.2z M237.1,61
				c0-1.5-0.6-2.9-1.6-3.9c-1-1-2.4-1.6-3.9-1.6c-1.5,0-2.9,0.6-3.9,1.6c-1,1-1.6,2.4-1.6,3.9c0,1.5,0.6,2.9,1.6,3.9
				c1,1,2.4,1.6,3.9,1.6c1.5,0,2.9-0.6,3.9-1.6C236.4,63.9,237.1,62.5,237.1,61z"/>
			<path d="M224.5,68c0.4,0.4,0.4,1.1,0,1.6l-2.4,2.4c-0.4,0.4-1.1,0.4-1.6,0c-0.4-0.4-0.4-1.1,0-1.6l2.4-2.4
				C223.4,67.5,224.1,67.5,224.5,68z"/>
			<path d="M232.6,71.9v3.4c0,0.6-0.5,1.1-1.1,1.1c-0.6,0-1.1-0.5-1.1-1.1v-3.4c0-0.6,0.5-1.1,1.1-1.1
				C232.1,70.9,232.6,71.3,232.6,71.9z"/>
			<path d="M242.4,70.3c0.4,0.4,0.4,1.1,0,1.6c-0.4,0.4-1.1,0.4-1.5,0l-2.4-2.4c-0.4-0.4-0.4-1.1,0-1.6c0.4-0.4,1.1-0.4,1.6,0
				L242.4,70.3z"/>
			<path d="M245.8,59.9c0.6,0,1.1,0.5,1.1,1.1s-0.5,1.1-1.1,1.1h-3.3c-0.6,0-1.1-0.5-1.1-1.1c0-0.6,0.5-1.1,1.1-1.1H245.8z"/>
			<path d="M242.4,50.1c0.4,0.4,0.4,1.1,0,1.6L240,54c-0.4,0.4-1.1,0.4-1.6,0c-0.4-0.4-0.4-1.1,0-1.5l2.3-2.3
				C241.2,49.7,241.9,49.7,242.4,50.1z"/>
			<path d="M232.6,46.7V50c0,0.6-0.5,1.1-1.1,1.1c-0.6,0-1.1-0.5-1.1-1.1v-3.3c0-0.6,0.5-1.1,1.1-1.1
				C232.1,45.6,232.6,46.1,232.6,46.7z"/>
			<path d="M224.5,52.5c0.4,0.4,0.4,1.1,0,1.6c-0.4,0.4-1.1,0.4-1.6,0l-2.3-2.4c-0.4-0.4-0.4-1.1,0-1.5c0.4-0.4,1.1-0.4,1.6,0
				L224.5,52.5z"/>
			<path d="M220.5,59.9c0.6,0,1.1,0.5,1.1,1.1s-0.5,1.1-1.1,1.1h-3.3c-0.6,0-1.1-0.5-1.1-1.1c0-0.6,0.5-1.1,1.1-1.1H220.5z"/>
		</g>
	</g>
	<path class="st0" d="M132.3,76.6c0-0.4,0.1-0.8,0.3-1.2l0,0l0.3-0.6l0.3-0.5c0.8-1.4,1.9-2.7,3.2-3.8c1.3-1,2.7-1.8,4.2-2.3
		c3.2-1.8,6.8-2.4,10.4-1.8l0.2,0c0.7,0.1,1.2,0.7,1.1,1.4l0,0.1c-0.2,2-0.6,4-1,5.9c-0.2,1.1-0.8,1.9-1.5,1.8c-0.7,0-1-1-1-2.1
		c0.1-1.5,0.2-3,0.3-4.4c-1.2-0.1-2.4-0.1-3.6,0.1c-0.3,0-0.6,0.1-0.8,0.1l-0.8,0.2c-1.1,0.4-2.1,0.9-3.1,1.5l-0.4,0.2l-0.3,0.2
		c-0.2,0.2-0.4,0.3-0.7,0.5c-0.4,0.3-0.9,0.7-1.3,1.1c-0.4,0.4-0.8,0.8-1.2,1.2c-0.2,0.2-0.4,0.4-0.5,0.7l-0.3,0.3l-0.2,0.4
		c-0.2,0.2-0.3,0.5-0.5,0.7l0,0.1l0.3,0.2c1.8,0.9,3.3,2.2,4.5,3.8c0.3,0.4,0.5,0.9,0.1,1.2c-0.3,0.1-0.6,0.2-0.9,0.1
		c-1.3-0.7-2.7-1.4-4-2.1l-2-1l-0.3-0.1l0,0l0,0l0,0c-0.4-0.2-0.6-0.6-0.7-1L132.3,76.6z M178.4,98.4c-0.5-0.3-1.1-0.5-1.7-0.6
		c-0.3,0-0.6,0-0.9,0l-0.3,0l-1-2.1c-0.4-0.8-0.8-1.6-1.2-2.5c-0.9-1.7-2-3.4-3.2-4.9c-4.2-5.1-10-8.6-16.4-10.1
		c-0.3-0.1-0.6,0-0.9,0.1l0,0l-11.3,5.8c-0.3,0.2-0.6,0.4-0.7,0.8l0,0c-2.7,6.6-3,13.9-0.8,20.6c0.3,1.1,0.7,2.1,1.1,3.2
		c0.4,1,0.9,2.1,1.4,3l1.1,2.2c-0.1,0.2-0.2,0.3-0.4,0.6c-0.4,0.6-0.7,1.3-0.8,2.1c-0.2,1.5,0.2,3.1,1.2,4.2l0.7,0.5l-0.7-0.5
		c1.2,1.4,3.2,2.1,5,1.8c0.5-0.1,0.9-0.2,1.3-0.4l2.6-1.4l6.8-3.6c4.5-2.4,9-4.9,13.5-7.4c3.3-1.9,6-3.7,5.4-4.2
		c-0.6-0.5-3.2,0.3-6.7,2.1c-6.3,3.2-12.7,6.3-19,9.7l-4.1,2.1c-0.9,0.4-2,0.2-2.7-0.6l-0.6-0.4l0.6,0.4c-0.7-0.8-0.8-1.9-0.2-2.8
		c0.1-0.1,0.3-0.4,0.4-0.6l0.5-0.6l0,0c0.3-0.4,0.3-0.9,0.1-1.3l-2.2-4.1c-0.7-1.3-1.3-2.7-1.8-4.1c-0.5-1.4-0.9-2.9-1.1-4.3
		c-0.2-1.5-0.4-3-0.4-4.5c0.2-3.4,0.9-6.8,2.2-10c3.4-1.7,6.9-3.5,10.3-5.2c4.4,1.1,8.5,3.2,11.9,6.3c1.8,1.6,3.3,3.4,4.6,5.3
		c0.3,0.5,0.7,1,0.9,1.5l0.4,0.8l0.4,0.8l1.7,3.3c0.3,0.5,0.9,0.9,1.5,0.9l0,0l0.8,0c0.2,0,0.6,0,0.7,0c0.9,0,1.7,0.6,1.9,1.5l0-0.9
		l0,0.9c0.1,0.3,0.1,0.7,0,1c-0.1,0.3-0.1,0.6-0.2,0.9c-0.1,0.3-0.3,0.6-0.4,0.8c-0.2,0.3-0.1,0.5,0.3,0.4c0.6-0.1,1.2-0.5,1.5-1
		c0.5-0.7,0.7-1.6,0.5-2.5l0,0.1l0-0.1C180,100,179.3,99,178.4,98.4z M159.8,108c0.3-0.1,0.6-0.3,0.9-0.5c0.7-0.6,0.9-0.9,0.9-1.1
		c0-0.4,0-0.9-0.2-1.3c0.9-0.7,1.5-1.7,1.7-2.8c0.1-0.6,0.1-1.3,0-1.9c-0.1-0.6-0.4-1.2-0.7-1.7c-0.4-0.6-0.9-1-1.5-1.3
		c-0.6-0.3-1.2-0.5-1.8-0.6c-1.1-0.1-2.2,0-3.2,0.3l0,0c-0.7,0.2-1.4,0.3-2,0.3c-0.3,0-0.6-0.2-0.9-0.4c-0.2-0.1-0.3-0.3-0.4-0.5
		c-0.1-0.2-0.2-0.4-0.2-0.7c-0.1-0.5,0-0.9,0.3-1.3c0.3-0.5,0.7-0.8,1.2-1.1c0.5-0.3,1-0.4,1.6-0.3c0.3,0,0.6,0,1,0
		c0.3,0,0.6-0.2,0.8-0.4c0.2-0.3,0.2-0.7,0-1c-0.3-0.5-0.7-0.8-1.3-1c-0.7-0.2-1.4-0.3-2.1-0.2c-0.1-0.2-0.2-0.3-0.3-0.4
		c0-0.1,0-0.2,0-0.2c-0.1-0.5-0.4-0.9-0.8-1.2c-0.1-0.1-0.5,0-1.2,0.4c-0.7,0.4-1,0.6-1,0.8c0,0.3,0,0.5,0.1,0.8
		c0.2,0.3,0.5,0.6,0.8,0.9c-0.7,0.5-1.2,1.1-1.6,1.8c-0.2,0.5-0.4,0.9-0.4,1.4c-0.1,0.5,0,1,0,1.5c0.1,0.5,0.3,1,0.5,1.4
		c0.2,0.5,0.6,0.9,0.9,1.2c0.4,0.3,0.9,0.6,1.4,0.8c0.5,0.2,0.9,0.2,1.4,0.3c0.9,0,1.7-0.1,2.5-0.3l0,0l0.4,0l0.3,0l0.6,0
		c0.7-0.1,1.4,0.1,2,0.4c0.3,0.2,0.5,0.4,0.6,0.7c0.2,0.3,0.2,0.7,0.2,1c-0.1,0.8-0.6,1.5-1.3,1.8c-0.7,0.4-1.6,0.4-2.2,0
		c-0.1-0.1-0.5,0-0.7,0.1c-0.4,0.2-0.5,0.6-0.2,1.1c0.5,0.8,1.4,1.4,2.3,1.5c0.3,0,0.6,0,0.9,0l0,0c-0.5,1,0.2,1.3,0.3,1.9
		C159.5,108.1,159.7,108.1,159.8,108L159.8,108z"/>
	<g class="st0">
		<path d="M200.4,52.5c0.4,0,0.7-0.2,0.9-0.5l3-5.5c0.2-0.5,0.1-1.1-0.4-1.3l-52.7-28.9c-0.5-0.2-1.1-0.1-1.3,0.4l-3,5.5
			c-0.2,0.3-0.2,0.7,0,1c2.2,3.1,2.4,7.1,0.6,10.4s-5.3,5.3-9.1,5.1c-0.3,0-0.7,0.2-0.9,0.5l-3,5.5c-0.2,0.5-0.1,1.1,0.4,1.3
			l52.7,28.9c0.5,0.2,1.1,0.1,1.3-0.4l3-5.5c0.2-0.3,0.2-0.7,0-1c-2.1-3.1-2.4-7.1-0.6-10.3C193.2,54.3,196.7,52.3,200.4,52.5z
			 M189.8,56.7c-2.1,3.8-2,8.3,0.3,11.9l-2.3,4.2l-51.1-28l2.3-4.2c4.3,0,8.1-2.3,10.2-6.1s1.9-8.3-0.3-11.9l2.3-4.2l51.1,28
			l-2.3,4.2C195.7,50.6,191.8,52.9,189.8,56.7z"/>
		<path d="M182.8,41.6c-0.5-1.8-5.3-0.7-8.5,0.2l-8.3-5.9c-0.1-0.1-0.3-0.1-0.4-0.1l-1.2,0.4c-0.2,0.1-0.2,0.3-0.1,0.4l2.7,3.9
			l-0.6,0.2c-0.1,0-0.2,0.2-0.2,0.3l0.1,0.4c0,0.1,0.2,0.2,0.3,0.2l0.9-0.3l1.6,2.4c-2.6,1-5.3,2.2-6.8,2.8l-3-1.6
			c-0.1-0.1-0.3-0.1-0.4-0.1l-0.4,0.1c-0.1,0-0.1,0.1-0.1,0.3l2,3.1l0,3.7c0,0.1,0.1,0.2,0.2,0.2l0.4-0.1c0.2-0.1,0.2-0.2,0.3-0.3
			l1.6-3c1.7-0.3,4.6-0.7,7.3-1.3l-0.1,2.9l-0.9,0.3c-0.1,0-0.2,0.2-0.2,0.3l0.1,0.4c0,0.1,0.2,0.2,0.3,0.2l0.6-0.2l-0.2,4.7
			c0,0.1,0.1,0.3,0.3,0.2l1.2-0.4c0.2-0.1,0.2-0.2,0.3-0.3l3.9-9.4C178.7,45.1,183.3,43.5,182.8,41.6z"/>
	</g>
	<g class="st0">
		<path d="M122.1,35.4v9.7c0,0.9-0.7,1.6-1.6,1.6s-1.6-0.7-1.6-1.6v-5.8l-10.2,10.2c-0.3,0.3-0.7,0.5-1.1,0.5
			c-0.4,0-0.8-0.2-1.1-0.5l-3.7-3.7L92.5,56c-0.3,0.3-0.7,0.5-1.1,0.5c-0.4,0-0.8-0.2-1.1-0.5l-5.3-5.3L73.1,62.5
			c-0.6,0.6-1.7,0.6-2.3,0c-0.6-0.6-0.6-1.7,0-2.3l13-13c0.3-0.3,0.7-0.5,1.1-0.5c0.4,0,0.8,0.2,1.1,0.5l5.3,5.3l10.2-10.2
			c0.3-0.3,0.7-0.5,1.1-0.5c0.4,0,0.8,0.2,1.1,0.5l3.7,3.7l9.1-9.1h-5.8c-0.9,0-1.6-0.7-1.6-1.6s0.7-1.6,1.6-1.6h9.7
			C121.4,33.8,122.1,34.5,122.1,35.4z"/>
	</g>
	<g class="st0">
		<path d="M94.7,187.8c0.8,0,1.4,0.6,1.4,1.4s-0.6,1.4-1.4,1.4c-1.5,0-2.9,0.5-3.9,1.3c-0.9,0.8-1.5,1.8-1.5,2.9v40.9
			c0,0.8-0.6,1.4-1.4,1.4c-0.8,0-1.4-0.6-1.4-1.4v-40.9c0-2,0.9-3.8,2.5-5C90.5,188.6,92.5,187.8,94.7,187.8L94.7,187.8z"/>
		<path d="M110,168.3c-1.4-0.9-3-1.2-4.4-0.9c-1.5,0.3-2.9,1.2-3.9,2.5c-0.9,1.4-1.2,3-0.9,4.5c0.3,1.4,1,2.6,2.1,3.6
			c0.2-0.3,0.4-0.7,0.6-1c0.4-0.8,0.8-1.8,1.1-2.9l0,0l0,0l0,0c0,0,0,0,0-0.1c0.3-1.1,1-2,2-2.6c0.9-0.6,2.1-0.8,3.2-0.5
			c0,0,0.1,0,0.1,0c1.1,0.3,2,1,2.6,2c0.6,0.9,0.8,2.1,0.5,3.2c0,0.1,0,0.1-0.1,0.2c-0.6,2.2-1.4,4.1-2.3,5.7
			c-0.8,1.4-1.7,2.5-2.6,3.5c1.4,4.6,1.7,10.7,1.3,16.7c-0.5,9-2.4,18.1-3.8,22.8l0,0l0,0v0l-1.5,5.8c-0.1,0.4-0.1,0.9,0.2,1.2
			c0.2,0.3,0.5,0.6,1,0.7c0.4,0.1,0.9,0.1,1.2-0.2c0.3-0.2,0.6-0.5,0.7-1l1.6-5.8l5-22.9l1.3,0.3l-1.3-0.3c0.2-0.7,0.9-1.2,1.6-1
			c0.6,0.1,1,0.6,1.1,1.2l4.4,28.7c0.1,0.4,0.4,0.7,0.7,0.9c0.3,0.2,0.8,0.3,1.2,0.2c0.4-0.1,0.8-0.4,1-0.7c0.2-0.3,0.3-0.8,0.2-1.2
			l0,0c0,0,0-0.1,0-0.1c-1.6-8.7-1.5-17.3-1.4-25.3c0.1-15.5,0.2-28.9-12.1-37.1l0.8-1.1l-0.8,1.2C110.1,168.4,110,168.3,110,168.3
			L110,168.3z M105,164.7c2.2-0.4,4.5,0,6.5,1.3c0,0,0.1,0,0.1,0l0,0l0,0l0,0c13.5,9,13.4,23,13.3,39.4c-0.1,7.9-0.1,16.2,1.4,24.8
			c0.3,1.1,0.1,2.3-0.5,3.2c-0.6,1-1.5,1.7-2.6,2c-1.2,0.3-2.3,0.1-3.3-0.4c-0.9-0.5-1.7-1.4-2-2.5c0-0.1-0.1-0.2-0.1-0.2l1.4-0.2
			l-1.4,0.2l-3.3-21.5l-3.4,15.7c0,0,0,0.1,0,0.1l0,0l-1.6,5.9c-0.3,1.2-1,2.1-2,2.6c-1,0.6-2.1,0.7-3.3,0.4c-1.2-0.3-2.1-1-2.6-2
			c-0.6-1-0.7-2.1-0.4-3.3l1.5-5.8c0,0,0-0.1,0-0.1l1.3,0.4l-1.3-0.4c1.4-4.5,3.2-13.4,3.7-22.2c0.3-6.1,0.1-12.1-1.4-16.4
			c-0.2-0.5-0.1-1.2,0.3-1.5l0,0c1-0.9,1.9-2,2.8-3.4c0.8-1.4,1.5-3.1,2-5c0,0,0-0.1,0-0.1l0,0c0.1-0.4,0-0.8-0.2-1.2
			c-0.2-0.3-0.5-0.6-0.9-0.7h0l0,0c-0.4-0.1-0.8,0-1.2,0.2c-0.3,0.2-0.6,0.5-0.7,0.9v0l0,0c-0.3,1.3-0.8,2.5-1.3,3.5
			c-0.5,1-1.1,1.8-1.7,2.5c0,0-0.1,0.1-0.1,0.1c-0.5,0.6-1.4,0.6-1.9,0.2l0,0c-0.1-0.1-0.2-0.2-0.3-0.2c-0.1-0.1-0.2-0.1-0.3-0.2
			c-2-1.4-3.2-3.4-3.7-5.6c-0.4-2.2,0-4.6,1.4-6.5C100.8,166.4,102.8,165.2,105,164.7L105,164.7z"/>
		<path d="M96,184.7c-0.4,0-0.8,0.2-1.1,0.4c-0.3,0.3-0.5,0.7-0.5,1.1c0,0.4,0.2,0.8,0.4,1.1s0.7,0.5,1.1,0.5l0,0l0,0h0
			c0.1,0,11,0.3,14.3-12.4v0c0.1-0.4,0-0.8-0.2-1.2c-0.2-0.3-0.5-0.6-1-0.7l0,0 M93,183.2c0.8-0.8,1.9-1.2,3.1-1.2l0,0l0,0h0
			c0.1,0,6.4,0.2,8.5-8l0,0c0.3-1.2,1-2.1,2-2.6c0.9-0.6,2.1-0.8,3.3-0.5l0,0c1.2,0.3,2.1,1,2.6,2s0.8,2.1,0.5,3.3l0,0l0,0
			c-3.7,14.5-16.2,14.5-16.9,14.5l0,0l0,0h0h0l0,0c-1.2,0-2.3-0.5-3-1.3c-0.8-0.8-1.2-1.9-1.2-3.1C91.7,185,92.2,184,93,183.2z
			 M109.1,173.5c-0.4-0.1-0.8,0-1.2,0.2c-0.3,0.2-0.6,0.5-0.7,1l0,0c-2.6,10-10.6,10.1-11.1,10.1l0,0l0,0h0h0l0,0"/>
		<path d="M96.2,147.7c2.5,0,4.8,1,6.5,2.7c1.7,1.7,2.7,4,2.7,6.5s-1,4.8-2.7,6.5c-1.7,1.7-4,2.7-6.5,2.7s-4.8-1-6.5-2.7
			c-1.7-1.7-2.7-4-2.7-6.5s1-4.8,2.7-6.5C91.4,148.7,93.7,147.7,96.2,147.7z M100.8,152.3c-1.2-1.2-2.8-1.9-4.6-1.9
			s-3.4,0.7-4.6,1.9c-1.2,1.2-1.9,2.8-1.9,4.6s0.7,3.4,1.9,4.6c1.2,1.2,2.8,1.9,4.6,1.9s3.4-0.7,4.6-1.9c1.2-1.2,1.9-2.8,1.9-4.6
			S102,153.5,100.8,152.3z"/>
		<path d="M80.4,217l2.4-0.2c0.1,1,0.4,1.8,0.8,2.4c0.4,0.6,1.1,1.1,1.9,1.5s1.9,0.6,3,0.6c1,0,1.8-0.1,2.6-0.4
			c0.7-0.3,1.3-0.7,1.7-1.2c0.4-0.5,0.6-1,0.6-1.7c0-0.6-0.2-1.1-0.5-1.6c-0.3-0.4-0.9-0.8-1.7-1.1c-0.5-0.2-1.7-0.5-3.4-0.9
			s-3-0.8-3.7-1.2c-0.9-0.5-1.6-1.1-2.1-1.8c-0.4-0.7-0.7-1.5-0.7-2.4c0-1,0.3-1.9,0.8-2.7c0.6-0.8,1.4-1.5,2.4-1.9
			c1.1-0.4,2.2-0.7,3.5-0.7c1.4,0,2.7,0.2,3.8,0.7c1.1,0.5,1.9,1.1,2.5,2s0.9,1.9,0.9,3l-2.4,0.2c-0.1-1.2-0.6-2.1-1.3-2.8
			c-0.8-0.6-1.9-0.9-3.4-0.9c-1.5,0-2.7,0.3-3.4,0.8s-1.1,1.3-1.1,2c0,0.7,0.3,1.3,0.8,1.7c0.5,0.4,1.8,0.9,3.9,1.4
			c2.1,0.5,3.5,0.9,4.3,1.2c1.1,0.5,1.9,1.2,2.5,2c0.5,0.8,0.8,1.7,0.8,2.7s-0.3,2-0.9,2.9s-1.4,1.6-2.5,2.1
			c-1.1,0.5-2.3,0.8-3.7,0.8c-1.7,0-3.2-0.3-4.4-0.8c-1.2-0.5-2.1-1.3-2.8-2.3C80.8,219.4,80.5,218.3,80.4,217L80.4,217z"/>
	</g>
	<g class="st0">
		<path d="M94.7-28.5c0.8,0,1.4,0.6,1.4,1.4c0,0.8-0.6,1.4-1.4,1.4c-1.5,0-2.9,0.5-3.9,1.3c-0.9,0.8-1.5,1.8-1.5,2.9v40.9
			c0,0.8-0.6,1.4-1.4,1.4c-0.8,0-1.4-0.6-1.4-1.4v-40.9c0-2,0.9-3.8,2.5-5C90.5-27.8,92.5-28.5,94.7-28.5L94.7-28.5z"/>
		<path d="M110-48c-1.4-0.9-3-1.2-4.4-0.9c-1.5,0.3-2.9,1.2-3.9,2.5c-0.9,1.4-1.2,3-0.9,4.5c0.3,1.4,1,2.6,2.1,3.6
			c0.2-0.3,0.4-0.7,0.6-1c0.4-0.8,0.8-1.8,1.1-2.9l0,0l0,0l0,0c0,0,0,0,0-0.1c0.3-1.1,1-2,2-2.6c0.9-0.6,2.1-0.8,3.2-0.5
			c0,0,0.1,0,0.1,0c1.1,0.3,2,1,2.6,2c0.6,0.9,0.8,2.1,0.5,3.2c0,0.1,0,0.1-0.1,0.2c-0.6,2.2-1.4,4.1-2.3,5.7
			c-0.8,1.4-1.7,2.5-2.6,3.5c1.4,4.6,1.7,10.7,1.3,16.7c-0.5,9-2.4,18.1-3.8,22.8l0,0l0,0v0l-1.5,5.8c-0.1,0.4-0.1,0.9,0.2,1.2
			c0.2,0.3,0.5,0.6,1,0.7c0.4,0.1,0.9,0.1,1.2-0.2c0.3-0.2,0.6-0.5,0.7-1l1.6-5.8l5-22.9l1.3,0.3l-1.3-0.3c0.2-0.7,0.9-1.2,1.6-1
			c0.6,0.1,1,0.6,1.1,1.2l4.4,28.7c0.1,0.4,0.4,0.7,0.7,0.9c0.3,0.2,0.8,0.3,1.2,0.2c0.4-0.1,0.8-0.4,1-0.7c0.2-0.3,0.3-0.8,0.2-1.2
			l0,0c0,0,0-0.1,0-0.1c-1.6-8.7-1.5-17.3-1.4-25.3c0.1-15.5,0.2-28.9-12.1-37.1l0.8-1.1l-0.8,1.2C110.1-48,110-48,110-48L110-48z
			 M105-51.6c2.2-0.4,4.5,0,6.5,1.3c0,0,0.1,0,0.1,0l0,0l0,0l0,0c13.5,9,13.4,23,13.3,39.4c-0.1,7.9-0.1,16.2,1.4,24.8
			c0.3,1.1,0.1,2.3-0.5,3.2c-0.6,1-1.5,1.7-2.6,2c-1.2,0.3-2.3,0.1-3.3-0.4c-0.9-0.5-1.7-1.4-2-2.5c0-0.1-0.1-0.2-0.1-0.2l1.4-0.2
			l-1.4,0.2l-3.3-21.5l-3.4,15.7c0,0,0,0.1,0,0.1l0,0l-1.6,5.9c-0.3,1.2-1,2.1-2,2.6c-1,0.6-2.1,0.7-3.3,0.4c-1.2-0.3-2.1-1-2.6-2
			c-0.6-1-0.7-2.1-0.4-3.3l1.5-5.8c0,0,0-0.1,0-0.1l1.3,0.4l-1.3-0.4c1.4-4.5,3.2-13.4,3.7-22.2c0.3-6.1,0.1-12.1-1.4-16.4
			c-0.2-0.5-0.1-1.2,0.3-1.5l0,0c1-0.9,1.9-2,2.8-3.4s1.5-3.1,2-5c0,0,0-0.1,0-0.1l0,0c0.1-0.4,0-0.8-0.2-1.2
			c-0.2-0.3-0.5-0.6-0.9-0.7h0l0,0c-0.4-0.1-0.8,0-1.2,0.2c-0.3,0.2-0.6,0.5-0.7,0.9v0l0,0c-0.3,1.3-0.8,2.5-1.3,3.5
			c-0.5,1-1.1,1.8-1.7,2.5c0,0-0.1,0.1-0.1,0.1c-0.5,0.6-1.4,0.6-1.9,0.2l0,0c-0.1-0.1-0.2-0.2-0.3-0.2c-0.1-0.1-0.2-0.1-0.3-0.2
			c-2-1.4-3.2-3.4-3.7-5.6c-0.4-2.2,0-4.6,1.4-6.5C100.8-49.9,102.8-51.1,105-51.6L105-51.6z"/>
		<path d="M96-31.6c-0.4,0-0.8,0.2-1.1,0.4c-0.3,0.3-0.5,0.7-0.5,1.1c0,0.4,0.2,0.8,0.4,1.1c0.3,0.3,0.7,0.5,1.1,0.5l0,0l0,0h0
			c0.1,0,11,0.3,14.3-12.4v0c0.1-0.4,0-0.8-0.2-1.2c-0.2-0.3-0.5-0.6-1-0.7l0,0 M93-33.1c0.8-0.8,1.9-1.2,3.1-1.2l0,0l0,0h0
			c0.1,0,6.4,0.2,8.5-8l0,0c0.3-1.2,1-2.1,2-2.6c0.9-0.6,2.1-0.8,3.3-0.5l0,0c1.2,0.3,2.1,1,2.6,2c0.6,0.9,0.8,2.1,0.5,3.3l0,0l0,0
			C109.2-25.7,96.7-25.7,96-25.7l0,0l0,0h0h0l0,0c-1.2,0-2.3-0.5-3-1.3c-0.8-0.8-1.2-1.9-1.2-3.1C91.7-31.3,92.2-32.4,93-33.1z
			 M109.1-42.8c-0.4-0.1-0.8,0-1.2,0.2c-0.3,0.2-0.6,0.5-0.7,1l0,0c-2.6,10-10.6,10.1-11.1,10.1l0,0l0,0h0h0l0,0"/>
		<path d="M96.2-68.6c2.5,0,4.8,1,6.5,2.7c1.7,1.7,2.7,4,2.7,6.5c0,2.5-1,4.8-2.7,6.5c-1.7,1.7-4,2.7-6.5,2.7s-4.8-1-6.5-2.7
			c-1.7-1.7-2.7-4-2.7-6.5c0-2.5,1-4.8,2.7-6.5C91.4-67.6,93.7-68.6,96.2-68.6z M100.8-64c-1.2-1.2-2.8-1.9-4.6-1.9
			s-3.4,0.7-4.6,1.9c-1.2,1.2-1.9,2.8-1.9,4.6s0.7,3.4,1.9,4.6c1.2,1.2,2.8,1.9,4.6,1.9s3.4-0.7,4.6-1.9c1.2-1.2,1.9-2.8,1.9-4.6
			S102-62.8,100.8-64z"/>
		<path d="M80.4,0.6l2.4-0.2c0.1,1,0.4,1.8,0.8,2.4c0.4,0.6,1.1,1.1,1.9,1.5s1.9,0.6,3,0.6c1,0,1.8-0.1,2.6-0.4
			c0.7-0.3,1.3-0.7,1.7-1.2c0.4-0.5,0.6-1,0.6-1.7S93.1,0.5,92.8,0c-0.3-0.4-0.9-0.8-1.7-1.1c-0.5-0.2-1.7-0.5-3.4-0.9
			s-3-0.8-3.7-1.2C83-3.7,82.3-4.3,81.8-5c-0.4-0.7-0.7-1.5-0.7-2.4c0-1,0.3-1.9,0.8-2.7c0.6-0.8,1.4-1.5,2.4-1.9s2.2-0.7,3.5-0.7
			c1.4,0,2.7,0.2,3.8,0.7c1.1,0.5,1.9,1.1,2.5,2s0.9,1.9,0.9,3l-2.4,0.2c-0.1-1.2-0.6-2.1-1.3-2.8c-0.8-0.6-1.9-0.9-3.4-0.9
			c-1.5,0-2.7,0.3-3.4,0.8s-1.1,1.3-1.1,2c0,0.7,0.3,1.3,0.8,1.7c0.5,0.4,1.8,0.9,3.9,1.4c2.1,0.5,3.5,0.9,4.3,1.2
			c1.1,0.5,1.9,1.2,2.5,2c0.5,0.8,0.8,1.7,0.8,2.7s-0.3,2-0.9,2.9s-1.4,1.6-2.5,2.1c-1.1,0.5-2.3,0.8-3.7,0.8
			c-1.7,0-3.2-0.3-4.4-0.8c-1.2-0.5-2.1-1.3-2.8-2.3C80.8,3.1,80.5,2,80.4,0.6L80.4,0.6z"/>
	</g>
	<path class="st0" d="M209.3,213.7c0.2-0.7,0.1-1.6-0.2-2.4c-0.4-0.7-1-1.2-1.8-1.5l-34-10.5c-1.3-0.4-2.7,0.1-3.4,1.3
		c-0.3-0.2-0.5-0.4-0.9-0.5l-2.4-0.7c-0.6-0.2-1.2-0.2-1.7,0.1c-0.4,0.2-0.7,0.5-0.9,0.9c-1.1-0.3-2.2-0.2-3.2,0.3
		c-0.7,0.4-1.3,0.9-1.7,1.6c-0.2-0.1-0.4-0.2-0.6-0.2c-1.4-0.4-2.9-0.5-4.2-0.2c-0.9,0.2-1.9,0.1-2.7-0.2c-0.1-0.1-0.3-0.1-0.5-0.1
		c-3-0.9-4.6,0.5-5,1.9c-0.5,1.5,0.1,3.5,3.1,4.4c0.2,0.1,0.3,0.1,0.5,0.1c0.9,0.2,1.8,0.7,2.4,1.4c0.9,1,2.2,1.8,3.6,2.2
		c0.2,0.1,0.5,0.1,0.7,0.2c-0.1,0.7,0.1,1.5,0.4,2.2c0.5,1,1.4,1.7,2.5,2.1c-0.1,1.1,0.4,2.2,1.5,2.4l2.4,0.7c0.4,0.1,0.7,0.1,1,0.1
		c0,0.5,0.1,0.9,0.3,1.4c0.4,0.7,1,1.2,1.8,1.5l34.2,10.6c1.6,0.5,3.3-0.4,3.8-2L209.3,213.7z M155.8,210.3c-1.2-0.4-2.2-1-3-1.8
		c-0.8-0.9-1.9-1.5-3-1.8c-0.1,0-0.2,0-0.4-0.1c-1.8-0.5-2.5-1.5-2.2-2.7c0.4-1.2,1.6-1.5,3.4-1c0.1,0,0.3,0.1,0.4,0.1
		c1.1,0.4,2.4,0.5,3.5,0.2c1.1-0.3,2.3-0.2,3.5,0.2c0.2,0.1,0.4,0.1,0.6,0.2l-2.2,6.9C156.2,210.4,156,210.3,155.8,210.3z
		 M157.6,211.1c0,0,2.4-7.7,2.4-7.7c0.3-0.7,0.7-1.1,1.4-1.5c0.7-0.4,1.4-0.4,2.1-0.2l-4.1,13c-0.7-0.2-1.3-0.7-1.7-1.4
		C157.4,212.7,157.4,211.8,157.6,211.1z M163.4,218l-2.4-0.7c-0.2-0.1-0.4-0.2-0.5-0.4c-0.1-0.2-0.1-0.4,0-0.7l0.1-0.4l4.5-14.6
		c0.1-0.2,0.2-0.4,0.4-0.5c0.2-0.1,0.4-0.1,0.7,0l2.4,0.7c0.5,0.1,0.7,0.6,0.6,1.1l-4.7,15C164.3,217.9,163.9,218.1,163.4,218z
		 M200.7,231.4l-34.2-10.6c-0.5-0.1-0.8-0.4-1-0.8c-0.2-0.4-0.2-0.9-0.1-1.3l0.3-0.9l0,0l2.2-7l2.8-9.1c0.3-0.9,1.2-1.4,2.1-1.1
		l34.1,10.6c0.8,0.3,1.3,1.2,1.1,2.1l-5.2,16.9C202.5,231.2,201.6,231.7,200.7,231.4z"/>
	<path class="st0" d="M177.8,205.1c0.1-0.2,0-0.4,0-0.5c-0.1-0.1-0.2-0.3-0.4-0.3c-0.4-0.1-0.7,0.1-0.8,0.4l-1.3,4.4
		c-0.1,0.4,0.1,0.7,0.4,0.8c0.4,0.1,0.7-0.1,0.8-0.4L177.8,205.1z"/>
	<path class="st0" d="M183.4,206.8c0.1-0.2,0-0.4,0-0.5c-0.1-0.1-0.2-0.3-0.4-0.3c-0.4-0.1-0.7,0.1-0.8,0.4l-1.3,4.4
		c-0.1,0.4,0.1,0.7,0.4,0.8c0.4,0.1,0.7-0.1,0.8-0.4L183.4,206.8z"/>
	<path class="st0" d="M189,208.5c0.1-0.2,0-0.4,0-0.5c-0.1-0.1-0.2-0.3-0.4-0.3c-0.4-0.1-0.7,0.1-0.8,0.4l-1.3,4.4
		c-0.1,0.4,0.1,0.7,0.4,0.8s0.7-0.1,0.8-0.4L189,208.5z"/>
	<path class="st0" d="M194.6,210.3c0.1-0.2,0-0.4,0-0.5s-0.2-0.3-0.4-0.3c-0.4-0.1-0.7,0.1-0.8,0.4l-1.4,4.3
		c-0.1,0.4,0.1,0.7,0.4,0.8s0.7-0.1,0.8-0.4L194.6,210.3z"/>
	<path class="st0" d="M200.1,212c0.1-0.2,0-0.4,0-0.5c-0.1-0.1-0.2-0.3-0.4-0.3c-0.4-0.1-0.7,0.1-0.8,0.4l-1.3,4.4
		c-0.1,0.4,0.1,0.7,0.4,0.8s0.7-0.1,0.8-0.4L200.1,212z"/>
	<g class="st0">
		<path d="M109.7,128.8h-1.5v-9.2l7.2-12.4h-2.9l2.6-4.9l-0.9-0.5l-2.8,5.4h-4.8c-0.5-2.6-2.7-4.5-5.4-4.5c-3,0-5.5,2.5-5.5,5.5
			c0,3,2.5,5.5,5.5,5.5v-0.9c-2.5,0-4.6-2.1-4.6-4.6c0-2.5,2.1-4.6,4.6-4.6c2.2,0,4,1.5,4.5,3.6H100l7.2,12.4v9.2h-1.5
			c-1,0-1.7,0.8-1.8,1.7h-8.2v1h8.2h7.6h4v-1h-4C111.5,129.6,110.7,128.8,109.7,128.8z M105.2,114l-0.6-1.1h6.3l-1.2,2h-1.6v1h1
			l-1.4,2.4l-1.9-3.3h1v-1H105.2z M113.6,108.2l-2.1,3.7H110l1.9-3.7H113.6z M110.8,108.2l-1.9,3.7h-4.9l-2.1-3.7H110.8z
			 M104.9,130.5c0-0.4,0.3-0.7,0.7-0.7h4.1c0.4,0,0.7,0.3,0.7,0.7H104.9z"/>
		<rect x="118.6" y="130.5" width="4.2" height="1"/>
		<rect x="99.4" y="124.4" width="5.1" height="1"/>
		<rect x="111.4" y="122.3" width="7.1" height="1"/>
		<rect x="103.2" y="118.9" width="2" height="1"/>
		<rect x="95.6" y="118.9" width="5.7" height="1"/>
		<rect x="111" y="116.7" width="1.9" height="1"/>
		<rect x="114.5" y="116.7" width="5.4" height="1"/>
	</g>
	<g class="st0">
		<path d="M27.8,27.3V4.2l14.8-7.8c0.8-0.4,1.1-1.4,0.7-2.3c-0.4-0.8-1.4-1.1-2.3-0.7L25.6,1.6c-0.6,0.3-0.9,0.5-1.1,1.2
			c-0.1,0.4-0.1,0.9-0.1,1.2v23.3c-2,0.7-3.4,2.6-3.4,4.8v6.2h10.1v-6.2C31.2,29.9,29.8,28,27.8,27.3z"/>
		<path d="M21.8,5.5l-1.8-1v4.3c0,2,0.6,4,1.8,5.7V5.5z"/>
		<path d="M41.7,16.4L40,15.4l-9.5-5.6v11.4c3.3,1.3,7.1,2.1,11.2,2.1c11.9,0,21.6-6.5,21.6-14.5V4.5L43.3,15.4L41.7,16.4z"/>
		<path d="M41.7-23.9L8.6-5.7l0.1,0.1L22,1.7c0.5-1.6,1.7-2.3,2.3-2.6l15.4-8.2c0.6-0.3,1.3-0.5,2-0.5c1.6,0,3.1,0.9,3.8,2.3
			c1.1,2.1,0.3,4.7-1.8,5.8L30.5,5.6l11.2,6.8l33-18l0.1-0.1L41.7-23.9z"/>
		<path d="M41.7-6.9c0,0,0.1,0,0.1,0C41.8-6.9,41.8-6.9,41.7-6.9C41.7-6.9,41.7-6.9,41.7-6.9z"/>
	</g>
	<g class="st0">
		<path d="M27.8,243v-23.1l14.8-7.8c0.8-0.4,1.1-1.4,0.7-2.3c-0.4-0.8-1.4-1.1-2.3-0.7l-15.4,8.2c-0.6,0.3-0.9,0.5-1.1,1.2
			c-0.1,0.4-0.1,0.9-0.1,1.2V243c-2,0.7-3.4,2.6-3.4,4.8v6.2h10.1v-6.2C31.2,245.6,29.8,243.7,27.8,243z"/>
		<path d="M21.8,221.3l-1.8-1v4.3c0,2,0.6,4,1.8,5.7V221.3z"/>
		<path d="M41.7,232.1l-1.7-0.9l-9.5-5.6V237c3.3,1.3,7.1,2.1,11.2,2.1c11.9,0,21.6-6.5,21.6-14.5v-4.3l-19.9,10.9L41.7,232.1z"/>
		<path d="M41.7,191.8L8.6,210.1l0.1,0.1l13.3,7.3c0.5-1.6,1.7-2.3,2.3-2.6l15.4-8.2c0.6-0.3,1.3-0.5,2-0.5c1.6,0,3.1,0.9,3.8,2.3
			c1.1,2.1,0.3,4.7-1.8,5.8l-13.3,7.1l11.2,6.8l33-18l0.1-0.1L41.7,191.8z"/>
		<path d="M41.7,208.8c0,0,0.1,0,0.1,0C41.8,208.8,41.8,208.8,41.7,208.8C41.7,208.8,41.7,208.8,41.7,208.8z"/>
	</g>
	<g class="st0">
		<g>
			<path d="M151.8,164.8L151.8,164.8c-0.3-0.2-0.5-0.5-0.5-0.8l-1.4-13.8c0-0.6,0.4-1,1-1c0.5,0,0.9,0.3,1,0.8l1.3,12.7l20.7-5.9
				c0.5-0.1,1.1,0.2,1.2,0.8c0.1,0.5-0.2,1-0.6,1.1l-21.8,6.1C152.3,164.9,152,164.9,151.8,164.8z"/>
			<path d="M143.9,143.8c-0.4-0.2-0.6-0.8-0.5-1.2c1.3-3.5,2.9-7,4.7-10.2c0.3-0.5,0.9-0.7,1.4-0.4c2.3,1.3,4.8,2.4,7.3,3.1
				c0.5,0.2,0.8,0.7,0.7,1.3c-0.2,0.5-0.7,0.8-1.3,0.7c-2.3-0.7-4.6-1.7-6.8-2.9c-1.6,2.9-2.9,6-4.1,9.1c-0.2,0.5-0.8,0.8-1.3,0.6
				c0,0,0,0,0,0L143.9,143.8z"/>
			<path d="M146.4,180.7c-7.3-4.1-9.1-17.4-4.5-33.2c0.2-0.5,0.7-0.8,1.2-0.7c0.5,0.2,0.8,0.7,0.7,1.2c-4.2,14.7-2.8,27.4,3.6,30.9
				c8.7,4.8,26.8-7.5,37-25.1c-9.8-5.8-13.3-13.1-14.3-15.6c-3.3,0.5-6.8,0.5-10.1-0.2c-0.5-0.1-0.9-0.6-0.9-1.1s0.6-0.9,1.1-0.9
				c0,0,0.1,0,0.1,0c3.3,0.7,6.8,0.7,10.1,0c0.5-0.1,1.1,0.2,1.2,0.7c0,0.1,2.8,9.2,14.5,15.8c0.5,0.3,0.7,0.9,0.4,1.4
				C175.9,173.2,156.3,186.2,146.4,180.7z"/>
		</g>
	</g>
	<path class="st0" d="M-28.4,183.8l1.7,5.5c0,0,0.3,0.6,1.5,0.8l10-0.8c0,0-4.1-9.8,5-12.6c0,0,5.3-1.7,9.1,4.2l1.1,3.7
		c0,0,0.2,1.1,1.4,0.8l29.5-9.1c0,0,1-0.2,0.6-1.5c0,0-3.8-9.8,4.6-12.4c0,0,7.6-2.5,10.5,6.9c0,0,0.2,0.9,1,0.7c0,0,6.3-2.4,8-4.8
		l-1.8-6c0,0-2.1-1.8-5-0.9c0,0-2.9-1.9-6-1.2c0,0-12,2.9-17.4,3.3l-13.2-2.8c0,0-4.4-0.6-13,3c0,0-11.4,4.4-26,18.4
		C-26.5,178.9-28.9,182.1-28.4,183.8z M42.9,158.2c1.9-0.9,5.5,0.8,5.5,0.8C44.3,161,42.9,158.2,42.9,158.2z M1.2,173.1
		c-0.1-0.2,0.2-0.5,0.6-0.6l2-0.6c0.4-0.1,0.8,0,0.8,0.2c0.1,0.2-0.2,0.5-0.6,0.6l-2,0.6C1.6,173.4,1.2,173.4,1.2,173.1z
		 M-13.2,171.7c-0.8-1.2,10.4-7.8,10.4-7.8c9.2-5.5,15.3-4.4,15.3-4.4l9.5,2.3l-31,9.5C-13.6,172.8-13.2,171.7-13.2,171.7z
		 M-27.1,184c-0.5-1.7,2.3-5,2.3-5c1.7-1.3,4.6-1.4,4.6-1.4C-19.6,181.7-27.1,184-27.1,184z"/>
	<path class="st0" d="M36.7,163.5c-3.7,1.1-5.7,5-4.6,8.6c1.1,3.6,5,5.7,8.6,4.6c3.6-1.1,5.7-5,4.6-8.6
		C44.2,164.5,40.4,162.4,36.7,163.5z M39.8,173.6c-1.9,0.6-3.9-0.5-4.5-2.4c-0.6-1.9,0.5-3.9,2.4-4.5c1.9-0.6,3.9,0.5,4.5,2.4
		C42.8,171,41.7,173,39.8,173.6z"/>
	<path class="st0" d="M38.1,168.1c-1.1,0.3-1.7,1.5-1.4,2.6c0.3,1.1,1.5,1.7,2.6,1.4c1.1-0.3,1.7-1.5,1.4-2.6
		C40.4,168.4,39.2,167.8,38.1,168.1z M39.1,171.2c-0.6,0.2-1.2-0.1-1.4-0.7s0.1-1.2,0.7-1.4c0.6-0.2,1.2,0.1,1.4,0.7
		C40,170.4,39.6,171,39.1,171.2z"/>
	<path class="st0" d="M-10.1,178c-3.7,1.1-5.7,5-4.6,8.6c1.1,3.6,5,5.7,8.6,4.6c3.6-1.1,5.7-5,4.6-8.6
		C-2.6,178.9-6.5,176.8-10.1,178z M-7,188c-1.9,0.6-3.9-0.5-4.5-2.4c-0.6-1.9,0.5-3.9,2.4-4.5c1.9-0.6,3.9,0.5,4.5,2.4
		C-4.1,185.4-5.1,187.4-7,188z"/>
	<path class="st0" d="M186.4,183.8l1.7,5.5c0,0,0.3,0.6,1.5,0.8l10-0.8c0,0-4.1-9.8,5-12.6c0,0,5.3-1.7,9.1,4.2l1.1,3.7
		c0,0,0.2,1.1,1.4,0.8l29.5-9.1c0,0,1-0.2,0.6-1.5c0,0-3.8-9.8,4.6-12.4c0,0,7.6-2.5,10.5,6.9c0,0,0.2,0.9,1,0.7c0,0,6.3-2.4,8-4.8
		l-1.8-6c0,0-2.1-1.8-5-0.9c0,0-2.9-1.9-6-1.2c0,0-12,2.9-17.4,3.3l-13.2-2.8c0,0-4.4-0.6-13,3c0,0-11.4,4.4-26,18.4
		C188.4,178.9,185.9,182.1,186.4,183.8z M257.8,158.2c1.9-0.9,5.5,0.8,5.5,0.8C259.1,161,257.8,158.2,257.8,158.2z M216,173.1
		c-0.1-0.2,0.2-0.5,0.6-0.6l2-0.6c0.4-0.1,0.8,0,0.8,0.2c0.1,0.2-0.2,0.5-0.6,0.6l-2,0.6C216.4,173.4,216.1,173.4,216,173.1z
		 M201.6,171.7c-0.8-1.2,10.4-7.8,10.4-7.8c9.2-5.5,15.3-4.4,15.3-4.4l9.5,2.3l-31,9.5C201.2,172.8,201.6,171.7,201.6,171.7z
		 M187.7,184c-0.5-1.7,2.3-5,2.3-5c1.7-1.3,4.6-1.4,4.6-1.4C195.2,181.7,187.7,184,187.7,184z"/>
	<path class="st0" d="M251.5,163.5c-3.7,1.1-5.7,5-4.6,8.6c1.1,3.6,5,5.7,8.6,4.6c3.6-1.1,5.7-5,4.6-8.6
		C259.1,164.5,255.2,162.4,251.5,163.5z M254.6,173.6c-1.9,0.6-3.9-0.5-4.5-2.4c-0.6-1.9,0.5-3.9,2.4-4.5c1.9-0.6,3.9,0.5,4.5,2.4
		C257.6,171,256.5,173,254.6,173.6z"/>
	<path class="st0" d="M252.9,168.1c-1.1,0.3-1.7,1.5-1.4,2.6c0.3,1.1,1.5,1.7,2.6,1.4c1.1-0.3,1.7-1.5,1.4-2.6
		C255.2,168.4,254.1,167.8,252.9,168.1z M253.9,171.2c-0.6,0.2-1.2-0.1-1.4-0.7c-0.2-0.6,0.1-1.2,0.7-1.4c0.6-0.2,1.2,0.1,1.4,0.7
		C254.8,170.4,254.5,171,253.9,171.2z"/>
	<path class="st0" d="M204.7,178c-3.7,1.1-5.7,5-4.6,8.6c1.1,3.6,5,5.7,8.6,4.6c3.6-1.1,5.7-5,4.6-8.6
		C212.2,178.9,208.3,176.8,204.7,178z M207.8,188c-1.9,0.6-3.9-0.5-4.5-2.4c-0.6-1.9,0.5-3.9,2.4-4.5c1.9-0.6,3.9,0.5,4.5,2.4
		C210.8,185.4,209.7,187.4,207.8,188z"/>
	<path class="st0" d="M-8.7,182.6c-1.1,0.3-1.7,1.5-1.4,2.6c0.3,1.1,1.5,1.7,2.6,1.4s1.7-1.5,1.4-2.6
		C-6.4,182.8-7.6,182.2-8.7,182.6z M-7.8,185.6c-0.6,0.2-1.2-0.1-1.4-0.7c-0.2-0.6,0.1-1.2,0.7-1.4c0.6-0.2,1.2,0.1,1.4,0.7
		C-6.9,184.8-7.2,185.4-7.8,185.6z"/>
	<path class="st0" d="M209.3,213.7c0.2-0.7,0.1-1.6-0.2-2.4c-0.4-0.7-1-1.2-1.8-1.5l-34-10.5c-1.3-0.4-2.7,0.1-3.4,1.3
		c-0.3-0.2-0.5-0.4-0.9-0.5l-2.4-0.7c-0.6-0.2-1.2-0.2-1.7,0.1c-0.4,0.2-0.7,0.5-0.9,0.9c-1.1-0.3-2.2-0.2-3.2,0.3
		c-0.7,0.4-1.3,0.9-1.7,1.6c-0.2-0.1-0.4-0.2-0.6-0.2c-1.4-0.4-2.9-0.5-4.2-0.2c-0.9,0.2-1.9,0.1-2.7-0.2c-0.1-0.1-0.3-0.1-0.5-0.1
		c-3-0.9-4.6,0.5-5,1.9c-0.5,1.5,0.1,3.5,3.1,4.4c0.2,0.1,0.3,0.1,0.5,0.1c0.9,0.2,1.8,0.7,2.4,1.4c0.9,1,2.2,1.8,3.6,2.2
		c0.2,0.1,0.5,0.1,0.7,0.2c-0.1,0.7,0.1,1.5,0.4,2.2c0.5,1,1.4,1.7,2.5,2.1c-0.1,1.1,0.4,2.2,1.5,2.4l2.4,0.7c0.4,0.1,0.7,0.1,1,0.1
		c0,0.5,0.1,0.9,0.3,1.4c0.4,0.7,1,1.2,1.8,1.5l34.2,10.6c1.6,0.5,3.3-0.4,3.8-2L209.3,213.7z M155.8,210.3c-1.2-0.4-2.2-1-3-1.8
		c-0.8-0.9-1.9-1.5-3-1.8c-0.1,0-0.2,0-0.4-0.1c-1.8-0.5-2.5-1.5-2.2-2.7c0.4-1.2,1.6-1.5,3.4-1c0.1,0,0.3,0.1,0.4,0.1
		c1.1,0.4,2.4,0.5,3.5,0.2c1.1-0.3,2.3-0.2,3.5,0.2c0.2,0.1,0.4,0.1,0.6,0.2l-2.2,6.9C156.2,210.4,156,210.3,155.8,210.3z
		 M157.6,211.1c0,0,2.4-7.7,2.4-7.7c0.3-0.7,0.7-1.1,1.4-1.5c0.7-0.4,1.4-0.4,2.1-0.2l-4.1,13c-0.7-0.2-1.3-0.7-1.7-1.4
		C157.4,212.7,157.4,211.8,157.6,211.1z M163.4,218l-2.4-0.7c-0.2-0.1-0.4-0.2-0.5-0.4c-0.1-0.2-0.1-0.4,0-0.7l0.1-0.4l4.5-14.6
		c0.1-0.2,0.2-0.4,0.4-0.5c0.2-0.1,0.4-0.1,0.7,0l2.4,0.7c0.5,0.1,0.7,0.6,0.6,1.1l-4.7,15C164.3,217.9,163.9,218.1,163.4,218z
		 M200.7,231.4l-34.2-10.6c-0.5-0.1-0.8-0.4-1-0.8c-0.2-0.4-0.2-0.9-0.1-1.3l0.3-0.9l0,0l2.2-7l2.8-9.1c0.3-0.9,1.2-1.4,2.1-1.1
		l34.1,10.6c0.8,0.3,1.3,1.2,1.1,2.1l-5.2,16.9C202.5,231.2,201.6,231.7,200.7,231.4z"/>
	<path class="st0" d="M177.8,205.1c0.1-0.2,0-0.4,0-0.5c-0.1-0.1-0.2-0.3-0.4-0.3c-0.4-0.1-0.7,0.1-0.8,0.4l-1.3,4.4
		c-0.1,0.4,0.1,0.7,0.4,0.8c0.4,0.1,0.7-0.1,0.8-0.4L177.8,205.1z"/>
	<path class="st0" d="M183.4,206.8c0.1-0.2,0-0.4,0-0.5c-0.1-0.1-0.2-0.3-0.4-0.3c-0.4-0.1-0.7,0.1-0.8,0.4l-1.3,4.4
		c-0.1,0.4,0.1,0.7,0.4,0.8c0.4,0.1,0.7-0.1,0.8-0.4L183.4,206.8z"/>
	<path class="st0" d="M189,208.5c0.1-0.2,0-0.4,0-0.5c-0.1-0.1-0.2-0.3-0.4-0.3c-0.4-0.1-0.7,0.1-0.8,0.4l-1.3,4.4
		c-0.1,0.4,0.1,0.7,0.4,0.8s0.7-0.1,0.8-0.4L189,208.5z"/>
	<path class="st0" d="M194.6,210.3c0.1-0.2,0-0.4,0-0.5s-0.2-0.3-0.4-0.3c-0.4-0.1-0.7,0.1-0.8,0.4l-1.4,4.3
		c-0.1,0.4,0.1,0.7,0.4,0.8s0.7-0.1,0.8-0.4L194.6,210.3z"/>
	<path class="st0" d="M200.1,212c0.1-0.2,0-0.4,0-0.5c-0.1-0.1-0.2-0.3-0.4-0.3c-0.4-0.1-0.7,0.1-0.8,0.4l-1.3,4.4
		c-0.1,0.4,0.1,0.7,0.4,0.8s0.7-0.1,0.8-0.4L200.1,212z"/>
	<path class="st0" d="M209.3-2.3c0.2-0.7,0.1-1.6-0.2-2.4c-0.4-0.7-1-1.2-1.8-1.5l-34-10.5c-1.3-0.4-2.7,0.1-3.4,1.3
		c-0.3-0.2-0.5-0.4-0.9-0.5l-2.4-0.7c-0.6-0.2-1.2-0.2-1.7,0.1c-0.4,0.2-0.7,0.5-0.9,0.9c-1.1-0.3-2.2-0.2-3.2,0.3
		c-0.7,0.4-1.3,0.9-1.7,1.6c-0.2-0.1-0.4-0.2-0.6-0.2c-1.4-0.4-2.9-0.5-4.2-0.2c-0.9,0.2-1.9,0.1-2.7-0.2c-0.1-0.1-0.3-0.1-0.5-0.1
		c-3-0.9-4.6,0.5-5,1.9c-0.5,1.5,0.1,3.5,3.1,4.4c0.2,0.1,0.3,0.1,0.5,0.1c0.9,0.2,1.8,0.7,2.4,1.4c0.9,1,2.2,1.8,3.6,2.2
		c0.2,0.1,0.5,0.1,0.7,0.2c-0.1,0.7,0.1,1.5,0.4,2.2c0.5,1,1.4,1.7,2.5,2.1c-0.1,1.1,0.4,2.2,1.5,2.4l2.4,0.7c0.4,0.1,0.7,0.1,1,0.1
		c0,0.5,0.1,0.9,0.3,1.4c0.4,0.7,1,1.2,1.8,1.5l34.2,10.6c1.6,0.5,3.3-0.4,3.8-2L209.3-2.3z M155.8-5.8c-1.2-0.4-2.2-1-3-1.8
		c-0.8-0.9-1.9-1.5-3-1.8c-0.1,0-0.2,0-0.4-0.1c-1.8-0.5-2.5-1.5-2.2-2.7c0.4-1.2,1.6-1.5,3.4-1c0.1,0,0.3,0.1,0.4,0.1
		c1.1,0.4,2.4,0.5,3.5,0.2c1.1-0.3,2.3-0.2,3.5,0.2c0.2,0.1,0.4,0.1,0.6,0.2l-2.2,6.9C156.2-5.7,156-5.7,155.8-5.8z M157.6-5
		c0,0,2.4-7.7,2.4-7.7c0.3-0.7,0.7-1.1,1.4-1.5c0.7-0.4,1.4-0.4,2.1-0.2l-4.1,13c-0.7-0.2-1.3-0.7-1.7-1.4
		C157.4-3.4,157.4-4.2,157.6-5z M163.4,1.9L161,1.2c-0.2-0.1-0.4-0.2-0.5-0.4s-0.1-0.4,0-0.7l0.1-0.4l4.5-14.6
		c0.1-0.2,0.2-0.4,0.4-0.5c0.2-0.1,0.4-0.1,0.7,0l2.4,0.7c0.5,0.1,0.7,0.6,0.6,1.1l-4.7,15C164.3,1.8,163.9,2.1,163.4,1.9z
		 M200.7,15.3L166.5,4.8c-0.5-0.1-0.8-0.4-1-0.8c-0.2-0.4-0.2-0.9-0.1-1.3l0.3-0.9l0,0l2.2-7l2.8-9.1c0.3-0.9,1.2-1.4,2.1-1.1
		l34.1,10.6c0.8,0.3,1.3,1.2,1.1,2.1l-5.2,16.9C202.5,15.1,201.6,15.6,200.7,15.3z"/>
	<path class="st0" d="M177.8-11c0.1-0.2,0-0.4,0-0.5s-0.2-0.3-0.4-0.3c-0.4-0.1-0.7,0.1-0.8,0.4L175.2-7c-0.1,0.4,0.1,0.7,0.4,0.8
		c0.4,0.1,0.7-0.1,0.8-0.4L177.8-11z"/>
	<path class="st0" d="M183.4-9.2c0.1-0.2,0-0.4,0-0.5c-0.1-0.1-0.2-0.3-0.4-0.3c-0.4-0.1-0.7,0.1-0.8,0.4l-1.3,4.4
		c-0.1,0.4,0.1,0.7,0.4,0.8s0.7-0.1,0.8-0.4L183.4-9.2z"/>
	<path class="st0" d="M189-7.6c0.1-0.2,0-0.4,0-0.5c-0.1-0.1-0.2-0.3-0.4-0.3c-0.4-0.1-0.7,0.1-0.8,0.4l-1.3,4.4
		c-0.1,0.4,0.1,0.7,0.4,0.8c0.4,0.1,0.7-0.1,0.8-0.4L189-7.6z"/>
	<path class="st0" d="M194.6-5.8c0.1-0.2,0-0.4,0-0.5c-0.1-0.1-0.2-0.3-0.4-0.3c-0.4-0.1-0.7,0.1-0.8,0.4l-1.4,4.3
		c-0.1,0.4,0.1,0.7,0.4,0.8s0.7-0.1,0.8-0.4L194.6-5.8z"/>
	<path class="st0" d="M200.1-4.1c0.1-0.2,0-0.4,0-0.5c-0.1-0.1-0.2-0.3-0.4-0.3c-0.4-0.1-0.7,0.1-0.8,0.4l-1.3,4.4
		c-0.1,0.4,0.1,0.7,0.4,0.8s0.7-0.1,0.8-0.4L200.1-4.1z"/>
	<path class="st0" d="M209.3-2.3c0.2-0.7,0.1-1.6-0.2-2.4c-0.4-0.7-1-1.2-1.8-1.5l-34-10.5c-1.3-0.4-2.7,0.1-3.4,1.3
		c-0.3-0.2-0.5-0.4-0.9-0.5l-2.4-0.7c-0.6-0.2-1.2-0.2-1.7,0.1c-0.4,0.2-0.7,0.5-0.9,0.9c-1.1-0.3-2.2-0.2-3.2,0.3
		c-0.7,0.4-1.3,0.9-1.7,1.6c-0.2-0.1-0.4-0.2-0.6-0.2c-1.4-0.4-2.9-0.5-4.2-0.2c-0.9,0.2-1.9,0.1-2.7-0.2c-0.1-0.1-0.3-0.1-0.5-0.1
		c-3-0.9-4.6,0.5-5,1.9c-0.5,1.5,0.1,3.5,3.1,4.4c0.2,0.1,0.3,0.1,0.5,0.1c0.9,0.2,1.8,0.7,2.4,1.4c0.9,1,2.2,1.8,3.6,2.2
		c0.2,0.1,0.5,0.1,0.7,0.2c-0.1,0.7,0.1,1.5,0.4,2.2c0.5,1,1.4,1.7,2.5,2.1c-0.1,1.1,0.4,2.2,1.5,2.4l2.4,0.7c0.4,0.1,0.7,0.1,1,0.1
		c0,0.5,0.1,0.9,0.3,1.4c0.4,0.7,1,1.2,1.8,1.5l34.2,10.6c1.6,0.5,3.3-0.4,3.8-2L209.3-2.3z M155.8-5.8c-1.2-0.4-2.2-1-3-1.8
		c-0.8-0.9-1.9-1.5-3-1.8c-0.1,0-0.2,0-0.4-0.1c-1.8-0.5-2.5-1.5-2.2-2.7c0.4-1.2,1.6-1.5,3.4-1c0.1,0,0.3,0.1,0.4,0.1
		c1.1,0.4,2.4,0.5,3.5,0.2c1.1-0.3,2.3-0.2,3.5,0.2c0.2,0.1,0.4,0.1,0.6,0.2l-2.2,6.9C156.2-5.7,156-5.7,155.8-5.8z M157.6-5
		c0,0,2.4-7.7,2.4-7.7c0.3-0.7,0.7-1.1,1.4-1.5c0.7-0.4,1.4-0.4,2.1-0.2l-4.1,13c-0.7-0.2-1.3-0.7-1.7-1.4
		C157.4-3.4,157.4-4.2,157.6-5z M163.4,1.9L161,1.2c-0.2-0.1-0.4-0.2-0.5-0.4s-0.1-0.4,0-0.7l0.1-0.4l4.5-14.6
		c0.1-0.2,0.2-0.4,0.4-0.5c0.2-0.1,0.4-0.1,0.7,0l2.4,0.7c0.5,0.1,0.7,0.6,0.6,1.1l-4.7,15C164.3,1.8,163.9,2.1,163.4,1.9z
		 M200.7,15.3L166.5,4.8c-0.5-0.1-0.8-0.4-1-0.8c-0.2-0.4-0.2-0.9-0.1-1.3l0.3-0.9l0,0l2.2-7l2.8-9.1c0.3-0.9,1.2-1.4,2.1-1.1
		l34.1,10.6c0.8,0.3,1.3,1.2,1.1,2.1l-5.2,16.9C202.5,15.1,201.6,15.6,200.7,15.3z"/>
	<path class="st0" d="M177.8-11c0.1-0.2,0-0.4,0-0.5s-0.2-0.3-0.4-0.3c-0.4-0.1-0.7,0.1-0.8,0.4L175.2-7c-0.1,0.4,0.1,0.7,0.4,0.8
		c0.4,0.1,0.7-0.1,0.8-0.4L177.8-11z"/>
	<path class="st0" d="M183.4-9.2c0.1-0.2,0-0.4,0-0.5c-0.1-0.1-0.2-0.3-0.4-0.3c-0.4-0.1-0.7,0.1-0.8,0.4l-1.3,4.4
		c-0.1,0.4,0.1,0.7,0.4,0.8s0.7-0.1,0.8-0.4L183.4-9.2z"/>
	<path class="st0" d="M189-7.6c0.1-0.2,0-0.4,0-0.5c-0.1-0.1-0.2-0.3-0.4-0.3c-0.4-0.1-0.7,0.1-0.8,0.4l-1.3,4.4
		c-0.1,0.4,0.1,0.7,0.4,0.8c0.4,0.1,0.7-0.1,0.8-0.4L189-7.6z"/>
	<path class="st0" d="M194.6-5.8c0.1-0.2,0-0.4,0-0.5c-0.1-0.1-0.2-0.3-0.4-0.3c-0.4-0.1-0.7,0.1-0.8,0.4l-1.4,4.3
		c-0.1,0.4,0.1,0.7,0.4,0.8s0.7-0.1,0.8-0.4L194.6-5.8z"/>
	<path class="st0" d="M200.1-4.1c0.1-0.2,0-0.4,0-0.5c-0.1-0.1-0.2-0.3-0.4-0.3c-0.4-0.1-0.7,0.1-0.8,0.4l-1.3,4.4
		c-0.1,0.4,0.1,0.7,0.4,0.8s0.7-0.1,0.8-0.4L200.1-4.1z"/>
</g>
</svg>
